<?xml version="1.0" encoding="UTF-8" standalone="no"?>
<!-- Created with Inkscape (http://www.inkscape.org/) -->

<svg
   width="178.47726mm"
   height="65.979134mm"
   viewBox="0 0 178.47727 65.979134"
   version="1.1"
   id="svg1"
   inkscape:version="1.4.3 (0d15f75, 2025-12-25)"
   sodipodi:docname="logo-light-theme.svg"
   inkscape:export-filename="logo.png"
   inkscape:export-xdpi="96"
   inkscape:export-ydpi="96"
   xmlns:inkscape="http://www.inkscape.org/namespaces/inkscape"
   xmlns:sodipodi="http://sodipodi.sourceforge.net/DTD/sodipodi-0.dtd"
   xmlns="http://www.w3.org/2000/svg"
   xmlns:svg="http://www.w3.org/2000/svg">
  <sodipodi:namedview
     id="namedview1"
     pagecolor="#ffffff"
     bordercolor="#000000"
     borderopacity="0.25"
     inkscape:showpageshadow="2"
     inkscape:pageopacity="0.0"
     inkscape:pagecheckerboard="0"
     inkscape:deskcolor="#d1d1d1"
     inkscape:document-units="mm"
     inkscape:zoom="1.2097557"
     inkscape:cx="324.85898"
     inkscape:cy="266.99606"
     inkscape:window-width="1728"
     inkscape:window-height="1051"
     inkscape:window-x="0"
     inkscape:window-y="38"
     inkscape:window-maximized="0"
     inkscape:current-layer="layer1"
     showborder="false" />
  <defs
     id="defs1">
    <rect
       x="69.091232"
       y="248.10036"
       width="717.59192"
       height="232.91519"
       id="rect1" />
  </defs>
  <g
     inkscape:label="Layer 1"
     inkscape:groupmode="layer"
     id="layer1"
     transform="translate(-17.987016,-54.469223)">
    <text
       xml:space="preserve"
       transform="scale(0.26458333)"
       id="text1"
       style="font-size:85.3333px;writing-mode:lr-tb;direction:ltr;white-space:pre;shape-inside:url(#rect1);display:inline;fill:#1e1e1e;fill-opacity:1"><tspan
         x="69.091797"
         y="325.95176"
         id="tspan3"><tspan
           style="font-weight:bold;font-family:'Libre Baskerville';-inkscape-font-specification:'Libre Baskerville Bold'"
           id="tspan2">ALEX
</tspan></tspan><tspan
         x="69.091797"
         y="433.05122"
         id="tspan5"><tspan
           style="font-weight:bold;font-family:'Libre Baskerville';-inkscape-font-specification:'Libre Baskerville Bold'"
           id="tspan4">MARQUARDT</tspan></tspan></text>
    <path
       style="fill:#1e1e1e;fill-opacity:1;stroke-width:0.157746"
       d="m 113.55394,86.382224 c -0.8019,-0.07345 -1.07933,-0.253006 -1.09365,-0.707814 -0.0112,-0.354498 -0.0151,-0.355682 -0.17444,-0.05212 -0.2385,0.45446 -0.78388,0.379865 -1.34544,-0.18402 -0.43696,-0.438763 -0.48291,-0.583021 -0.40696,-1.276986 0.0473,-0.43029 0.13854,-0.875533 0.20319,-0.989425 0.0987,-0.173772 -0.0568,-0.199556 -0.96629,-0.160304 l -1.08387,0.04678 v 1.14823 1.148229 l 0.90417,0.09524 c 0.60377,0.06359 0.96309,0.179556 1.0815,0.349009 0.25524,0.365283 0.22729,0.409972 -0.25643,0.409972 -0.34501,0 -0.41446,-0.05649 -0.33947,-0.276105 0.0815,-0.23852 0.006,-0.276106 -0.55763,-0.276106 -0.53173,0 -0.65189,0.05089 -0.65189,0.276106 0,0.204409 -0.12017,0.276105 -0.46278,0.276105 -0.38073,0 -0.44249,-0.04894 -0.34835,-0.276105 0.10299,-0.248596 0.0324,-0.276106 -0.70883,-0.276106 -0.70313,0 -0.82329,0.0403 -0.82329,0.276106 0,0.18407 -0.12016,0.276105 -0.3605,0.276105 -0.4024,0 -0.48177,-0.305265 -0.13519,-0.519849 0.12392,-0.07672 0.65115,-0.183346 1.17163,-0.236937 l 0.94631,-0.09744 v -1.160495 -1.160492 h -1.33899 c -0.90151,0 -1.42072,-0.06257 -1.58905,-0.191504 -0.22074,-0.169061 -0.50103,-1.555353 -1.21144,-5.991573 -0.12204,-0.762132 0.12295,-1.182674 0.4805,-0.824794 0.17656,0.176718 1.14105,4.971013 1.13745,5.653968 l -0.002,0.371756 2.27078,0.0424 c 1.24895,0.02332 2.30819,-0.0042 2.3539,-0.06113 0.0457,-0.05694 -0.63143,-0.103771 -1.50472,-0.104053 -1.84152,-5.66e-4 -2.65051,-0.263647 -2.83345,-0.921298 -0.0596,-0.214329 -0.0353,-1.265326 0.0539,-2.335554 0.17131,-2.054407 0.35459,-2.535768 1.24212,-3.262456 0.42581,-0.348644 0.44428,-0.416182 0.2498,-0.913358 -0.33601,-0.858962 -0.26935,-1.075473 0.43353,-1.408182 1.26365,-0.598152 2.155,-0.281814 2.28035,0.8093 0.0932,0.810706 -0.1507,1.405538 -0.57622,1.405538 -0.61691,0 -0.78273,0.340888 -0.5526,1.136004 0.32949,1.13841 0.71845,1.867998 1.05269,1.974555 0.16863,0.05376 0.99606,0.116882 1.83871,0.140268 0.84266,0.02338 1.62772,0.047 1.74456,0.05248 0.29123,0.01367 0.80237,0.421438 0.69501,0.55448 -0.11144,0.138112 1.53837,0.291554 2.04462,0.19016 0.27832,-0.05574 0.38255,-0.185072 0.38255,-0.474679 0,-0.39446 -0.23439,-0.527983 -0.45244,-0.257751 -0.24686,0.305919 -0.44864,-0.05833 -0.4455,-0.8042 0.004,-0.827516 0.43282,-3.384354 0.6366,-3.791077 0.0659,-0.131349 0.27321,-0.238816 0.46088,-0.238816 0.32139,0 0.3412,0.13625 0.3412,2.346894 0,1.472563 -0.0672,2.346894 -0.18025,2.346894 -0.0992,0 -0.18024,0.18637 -0.18024,0.414157 0,0.390116 0.0412,0.414159 0.71037,0.414159 0.75143,0 1.12588,0.22556 0.70965,0.427477 -0.1366,0.06628 -0.43091,0.121456 -0.65396,0.122618 l -0.40557,0.002 v 3.050081 c 0,2.933979 0.0138,3.052829 0.3605,3.122284 0.67381,0.134955 0.36391,0.316105 -0.54075,0.316105 -0.49568,0 -0.90124,-0.06213 -0.90124,-0.138052 0,-0.07593 0.12166,-0.138053 0.27038,-0.138053 0.23231,0 0.27037,-0.437166 0.27037,-3.106182 v -3.106182 h -2.07289 c -1.92896,0 -2.07286,-0.01853 -2.07286,-0.266935 0,-0.185613 0.15101,-0.28397 0.49567,-0.322851 0.27265,-0.03076 -0.54018,-0.05041 -1.80626,-0.04368 -1.94303,0.01032 -2.29399,0.04452 -2.25095,0.21931 0.0322,0.130923 0.62797,0.334008 1.61987,0.552212 0.86288,0.189821 1.65301,0.410555 1.75585,0.490519 0.24383,0.189626 1.81407,4.636374 1.69101,4.788855 -0.16524,0.204763 0.28989,0.487038 0.93461,0.579675 0.5834,0.08382 0.80095,0.259937 0.48926,0.396064 -0.26118,0.114064 -1.40348,0.187587 -2.02708,0.130466 z"
       id="path4" />
    <path
       style="fill:#1e1e1e;fill-opacity:1;stroke-width:0.153672"
       d="m 131.1081,86.098861 c -0.30125,-0.160097 -0.70801,-0.362685 -0.90388,-0.450193 -0.5619,-0.251037 -0.55587,-0.499903 0.0366,-1.510567 0.30485,-0.520043 0.55428,-0.968449 0.55428,-0.996461 0,-0.02801 -0.19367,-0.07242 -0.43037,-0.09868 l -0.43037,-0.04775 v -1.508977 -1.508978 l 0.63642,-0.04505 c 0.55841,-0.03952 0.65893,-0.105057 0.81999,-0.534505 0.10096,-0.269202 0.21605,-1.165635 0.25576,-1.992072 0.0397,-0.826439 0.17486,-2.136422 0.30033,-2.911077 0.22308,-1.377221 0.24461,-1.423678 0.97067,-2.094471 l 0.74253,-0.686011 -0.35801,-0.260386 c -0.34008,-0.247338 -0.34851,-0.298628 -0.16821,-1.023254 0.15083,-0.606228 0.27873,-0.798388 0.62296,-0.935867 0.49513,-0.197751 1.15926,-0.0816 1.44739,0.253143 0.10805,0.125532 0.19646,0.604502 0.19646,1.064377 0,0.695717 -0.0582,0.873396 -0.34654,1.057992 -0.44977,0.287948 -0.43937,0.377806 0.13723,1.185873 0.35389,0.49595 0.52767,0.969129 0.64734,1.762514 0.19193,1.272579 0.6833,2.295817 1.46395,3.048528 0.45633,0.439988 0.52554,0.581272 0.37212,0.759533 -0.26351,0.30613 -0.73727,0.273152 -0.84658,-0.05893 -0.0504,-0.152862 -0.27627,-0.441454 -0.50211,-0.641316 l -0.41063,-0.363388 0.10611,0.425802 c 0.0584,0.234193 0.20938,1.116944 0.33558,1.961672 0.14522,0.972037 0.46783,2.159075 0.87881,3.23347 l 0.64938,1.697601 h 0.75862 c 0.41723,0 0.75862,0.0689 0.75862,0.153116 0,0.241896 -0.97433,0.751085 -1.43837,0.751707 -0.23163,3.02e-4 -0.46468,0.06847 -0.51787,0.151462 -0.15878,0.247715 -0.70691,0.170967 -0.80828,-0.113173 -0.0518,-0.14524 -0.39535,-0.943112 -0.76341,-1.773049 -0.36806,-0.829939 -0.80529,-1.898845 -0.97163,-2.375348 -0.16633,-0.476505 -0.34877,-0.821683 -0.40542,-0.767065 -0.0567,0.05462 -0.10299,0.5221 -0.10299,1.038848 0,1.047036 -0.0739,1.122728 -1.09623,1.122728 -0.56184,0 -0.63772,0.0564 -1.16095,0.862941 -0.3079,0.474618 -0.5598,0.978345 -0.5598,1.119392 0,0.39353 0.17039,0.733575 0.36887,0.736139 0.0984,0.0012 0.2845,0.06918 0.41362,0.150897 0.20867,0.132078 0.20867,0.165098 0,0.297175 -0.34614,0.219093 -0.64062,0.186554 -1.25199,-0.138347 z m 1.56499,-6.423399 c 0,-0.163471 -0.17388,-0.226345 -0.62599,-0.226345 -0.58742,0 -0.76355,0.118876 -0.52166,0.352094 0.0574,0.05533 0.33907,0.100599 0.62599,0.100599 0.35937,0 0.52166,-0.07042 0.52166,-0.226348 z m 0.40755,-0.185478 c -0.15908,-0.153389 -0.29034,0.07754 -0.15982,0.28118 0.0986,0.153828 0.13546,0.153947 0.18847,6.08e-4 0.0363,-0.104842 0.0234,-0.231647 -0.0285,-0.281789 z"
       id="path6" />
    <path
       id="path3"
       style="fill:#1e1e1e;fill-opacity:1;stroke-width:0.0726558"
       d="m 153.06678,70.123254 c -0.30523,-0.0094 -0.78567,0.107354 -1.13629,0.284364 -0.51528,0.260128 -0.52606,0.946563 -0.0292,1.854062 l 0.24289,0.44361 -0.246,0.197206 c -0.51521,0.412695 -0.69529,1.130794 -0.54075,2.156201 0.30394,2.016805 0.32486,2.921615 0.10495,4.531647 l -0.0471,0.345789 h 0.27023 0.27023 l -0.0248,0.746174 c -0.0247,0.74491 -0.0254,0.747224 -0.38367,1.364953 -0.19742,0.340329 -0.64771,1.175681 -1.00062,1.856337 l -0.64159,1.237557 0.215,0.182136 c 0.22281,0.188824 0.51775,0.319797 1.48329,0.658875 0.52694,0.185052 0.89716,0.21505 1.26248,0.102088 0.15876,-0.04909 0.01,-0.253812 -0.2977,-0.40835 -0.16459,-0.08278 -0.38555,-0.231418 -0.49089,-0.330433 l -0.19148,-0.180001 0.57218,-0.951914 c 0.31473,-0.523542 0.57233,-0.968282 0.57233,-0.988169 0,-0.01989 0.0769,-0.137436 0.17094,-0.261332 0.41977,-0.552961 0.64567,-1.176693 0.73861,-2.038757 0.0514,-0.477528 0.0999,-0.45469 0.29643,0.139196 0.0662,0.200193 0.39117,0.920889 0.72203,1.601546 0.62488,1.285548 0.98857,2.114726 1.15428,2.631376 0.0533,0.166061 0.15166,0.408168 0.21853,0.538018 l 0.12153,0.236166 0.57218,-0.04436 c 0.76161,-0.05895 1.87914,-0.436731 1.87914,-0.635271 0,-0.136769 -0.47291,-0.380639 -0.82088,-0.423278 l -0.37561,-0.04594 -0.19417,-0.582381 c -0.10681,-0.320308 -0.40745,-1.253937 -0.66794,-2.074729 -0.38462,-1.211998 -0.77887,-2.294259 -1.10739,-3.039298 -0.024,-0.05444 0.014,-0.09148 0.0945,-0.09213 0.0741,-5.79e-4 0.18226,-0.03141 0.24049,-0.06839 0.0916,-0.05813 0.0895,-0.08547 -0.0153,-0.201756 -0.31793,-0.352695 -0.48299,-1.07234 -0.59314,-2.586019 -0.0404,-0.556509 -0.0453,-0.553053 0.50916,-0.381192 0.19578,0.06068 0.60911,0.131188 0.91847,0.156543 0.47069,0.03858 0.58475,0.02586 0.69866,-0.07763 0.24894,-0.226171 0.32372,-0.703824 0.27377,-1.74956 l -0.0463,-0.966984 0.81127,-0.03867 c 0.73985,-0.0352 0.8234,-0.05362 0.9492,-0.209579 0.10388,-0.128837 0.12921,-0.247391 0.10296,-0.481145 l -0.0347,-0.310244 h 0.34445 c 0.62047,0 1.23672,0.271381 1.46756,0.646364 l 0.15707,0.255074 0.10255,-0.250524 c 0.13269,-0.324039 0.0797,-1.374932 -0.0898,-1.779274 l -0.12208,-0.29119 -0.2548,0.307967 c -0.20176,0.243842 -0.34796,0.336604 -0.70305,0.446027 -0.53383,0.164509 -1.23055,0.27769 -2.10065,0.341239 -0.53077,0.03876 -0.66833,0.02599 -0.825,-0.07706 -0.44437,-0.2923 -0.67642,-0.27782 -1.25753,0.07891 -0.18676,0.114646 -0.41292,0.165208 -0.85346,0.190809 -0.47941,0.02786 -0.62045,0.06272 -0.70447,0.174174 -0.36024,0.477911 0.31488,1.028441 0.89312,0.728259 0.12251,-0.06359 0.38914,-0.115595 0.59258,-0.115595 0.35351,0 0.37461,0.01109 0.47503,0.252375 0.0577,0.13885 0.10509,0.369996 0.10509,0.513706 0,0.278246 -0.13377,0.909279 -0.21146,0.997696 -0.0358,0.04069 -0.73771,-0.127456 -0.86366,-0.206876 -0.013,-0.0082 0.19131,-0.287531 0.45378,-0.620768 0.26249,-0.333238 0.46627,-0.638783 0.45294,-0.678924 -0.0134,-0.04014 -0.16411,-0.1007 -0.3351,-0.134647 -0.28539,-0.05666 -0.33248,-0.04336 -0.57444,0.162799 -0.14497,0.123513 -0.36852,0.309424 -0.49671,0.413042 l -0.23298,0.188392 -0.54386,-0.277257 c -0.61896,-0.315613 -0.9141,-0.531421 -0.79511,-0.581242 0.30019,-0.125684 0.34584,-0.227446 0.35719,-0.797078 0.006,-0.337487 -0.0258,-0.64036 -0.08,-0.74532 -0.0743,-0.143877 -0.0727,-0.230201 0.009,-0.462805 l 0.10041,-0.285786 -0.33694,-0.214555 c -0.18531,-0.117987 -0.45105,-0.236047 -0.59059,-0.262327 -0.0356,-0.0067 -0.0756,-0.0106 -0.11925,-0.01195 z m 1.47167,2.03321 c -0.0329,3.59e-4 -0.0579,0.04115 -0.0579,0.09953 0,0.06673 0.0285,0.102127 0.0635,0.07877 0.0899,-0.06014 0.0944,-0.147337 0.009,-0.17588 -0.005,-0.0016 -0.01,-0.0025 -0.0146,-0.0024 z m 4.0407,0.135927 c 0.52392,0 0.64555,0.02296 0.77911,0.147871 0.23887,0.22341 0.0954,0.386999 -0.38962,0.444178 -0.83362,0.09826 -1.44096,0.124397 -1.47833,0.0637 -0.0526,-0.08536 0.0888,-0.166999 0.18539,-0.107064 0.13368,0.08294 0.37088,-0.196133 0.32447,-0.38176 -0.0411,-0.164366 -0.0321,-0.166923 0.57898,-0.166922 z m -2.90184,0.06242 c 0.22958,0.0028 0.43032,0.01796 0.44599,0.03371 0.09,0.09037 -0.095,0.250305 -0.37703,0.326026 -0.45494,0.122154 -0.61328,0.111918 -0.61198,-0.03995 0.002,-0.258752 0.1144,-0.324909 0.54302,-0.319769 z" />
    <path
       style="fill:#000000;stroke-width:0.161131"
       d="m 171.59616,86.221676 c -0.79702,-0.165998 -1.98209,-1.019016 -2.37766,-1.711453 -0.44012,-0.770445 -0.38695,-2.206957 0.11169,-3.017267 0.95215,-1.547253 3.33287,-2.139617 5.00657,-1.245718 l 0.54623,0.291732 0.45879,-0.433481 c 0.39147,-0.369872 0.4355,-0.49715 0.30006,-0.867384 -0.11814,-0.32296 -0.2853,-0.447171 -0.65374,-0.485795 -0.68055,-0.07134 -0.97979,-0.309646 -0.7304,-0.581666 0.13617,-0.14853 0.13805,-0.209615 0.006,-0.209615 -0.26347,0 -0.70251,-0.826555 -0.70251,-1.322601 0,-0.229901 0.30169,-0.982223 0.67043,-1.671826 0.61399,-1.148239 0.76373,-1.308841 1.77826,-1.907177 1.07567,-0.634394 1.10782,-0.672163 1.10782,-1.301457 0,-0.771054 0.37855,-1.155533 1.13774,-1.155533 0.28507,0 0.68877,0.124944 0.8971,0.277654 0.37521,0.275024 0.37614,0.28591 0.0987,1.14978 -0.24314,0.757067 -0.33532,0.872126 -0.69875,0.872126 -0.41816,0 -0.55139,0.268773 -0.26976,0.544229 0.0819,0.0801 0.2398,0.40318 0.35091,0.717952 0.11214,0.31768 0.42636,0.716919 0.70627,0.897334 0.99617,0.642104 2.93837,1.532873 2.99671,1.374422 0.10364,-0.281473 0.85675,-0.176945 1.04729,0.145361 0.13148,0.222379 0.12582,0.400425 -0.0205,0.648122 -0.18567,0.314033 -0.21065,0.319006 -0.31032,0.06179 -0.0985,-0.254094 -0.12895,-0.257292 -0.33285,-0.03492 -0.12345,0.134652 -0.32945,0.24482 -0.45776,0.24482 -0.5862,0 0.14421,1.901208 0.8182,2.129705 0.33234,0.112679 0.40339,0.0738 0.49503,-0.270881 l 0.10698,-0.402436 0.02,0.404179 c 0.0176,0.353722 0.10991,0.416497 0.73982,0.502845 2.24851,0.308216 3.6107,2.196136 3.01923,4.184478 -0.75408,2.535041 -4.78123,3.085328 -6.48663,0.886371 -1.0175,-1.311956 -0.7927,-3.017695 0.55896,-4.241223 0.71863,-0.650513 0.81042,-0.799888 0.65406,-1.064366 -0.10005,-0.16921 -0.24202,-0.286216 -0.31552,-0.260013 -0.0735,0.02621 -0.95914,0.829462 -1.96811,1.785022 -1.669,1.580643 -1.81528,1.765241 -1.62145,2.046207 0.11719,0.169855 0.18873,0.323771 0.159,0.342035 -0.0298,0.01826 -0.40488,0.287494 -0.83362,0.598287 -0.42877,0.310794 -0.84793,0.564023 -0.93148,0.562732 -0.0836,-0.0012 -0.0417,-0.06549 0.0931,-0.142653 0.20212,-0.115749 0.17296,-0.193092 -0.16651,-0.441931 l -0.4115,-0.30163 -0.22389,0.482608 c -0.665,1.433455 -2.61023,2.28821 -4.37231,1.921222 z m 2.37569,-0.942901 c 0.36535,-0.188327 0.6861,-0.411399 0.71278,-0.495717 0.0267,-0.08432 -0.36044,-0.404592 -0.86028,-0.711721 -0.6572,-0.403817 -0.96004,-0.512047 -1.09385,-0.390926 -0.13381,0.121121 -0.24157,0.116305 -0.38927,-0.0174 -0.15943,-0.144314 -0.3731,-0.0417 -0.97366,0.467578 l -0.76941,0.652463 0.66882,-0.651079 c 0.88161,-0.858231 0.8668,-1.231814 -0.0848,-2.141538 l -0.75364,-0.720448 0.80868,0.651761 c 0.50241,0.40493 0.88723,0.607136 1.01614,0.533928 0.1141,-0.06481 0.34737,-0.09697 0.51836,-0.07147 0.3394,0.05061 0.81344,-0.28228 1.32245,-0.928692 l 0.32659,-0.414764 -0.54718,-0.256137 c -0.65689,-0.307494 -1.99527,-0.309891 -2.64323,-0.0047 -1.44712,0.681517 -2.02626,2.21262 -1.3107,3.465201 0.718,1.256846 2.65886,1.751942 4.05223,1.033692 z m 11.26368,0.123006 c 0.95052,-0.44494 1.63987,-1.495142 1.58851,-2.420045 -0.0318,-0.572441 -0.0645,-0.667537 -0.40374,-1.171154 l -0.34996,-0.519612 -0.75024,0.66651 c -0.8658,0.769177 -0.94024,1.053211 -0.28451,1.085553 l 0.46574,0.02296 -0.46574,0.06386 c -0.25615,0.03512 -0.46573,0.10841 -0.46573,0.162857 0,0.05444 0.32389,0.407414 0.71977,0.784374 l 0.71978,0.68538 -0.82514,-0.638731 c -0.45381,-0.351302 -0.89202,-0.601299 -0.97381,-0.555553 -0.0818,0.04574 -0.16276,0.510276 -0.18,1.032282 l -0.0313,0.949102 -0.058,-0.843173 c -0.092,-1.337438 -0.13344,-1.361692 -1.02833,-0.601507 -0.75448,0.640914 -0.76383,0.644477 -0.1703,0.06488 0.84285,-0.823035 0.79791,-1.256796 -0.20493,-1.978227 -0.41917,-0.301535 -0.81059,-0.548914 -0.86984,-0.549732 -0.0593,-7.8e-4 -0.23111,0.233892 -0.38192,0.521579 -0.43105,0.82227 -0.11845,2.066715 0.68437,2.72439 0.89354,0.731991 2.31997,0.956526 3.26534,0.513997 z m -9.90238,-1.450118 0.2449,-0.428693 -1.12454,-0.09506 c -0.61849,-0.05228 -1.15533,-0.06718 -1.19297,-0.0331 -0.11172,0.101116 1.55104,1.140332 1.69534,1.059599 0.0728,-0.04072 0.24257,-0.266962 0.37727,-0.502744 z m 0.26076,-1.279273 c 0,-0.106903 -0.19865,-0.458989 -0.44143,-0.782415 l -0.44143,-0.588047 -0.74408,0.661031 c -0.40922,0.363566 -0.74407,0.715654 -0.74407,0.782414 0,0.06676 0.53348,0.121385 1.18551,0.121385 0.8444,0 1.1855,-0.05592 1.1855,-0.194368 z m 1.13078,-0.660627 0.03,-0.44809 -0.12322,0.459913 -0.12321,0.459911 -0.12931,-0.613215 c -0.18905,-0.896543 -0.48476,-1.762997 -0.6017,-1.762997 -0.056,0 -0.2016,0.144647 -0.32357,0.321438 -0.19281,0.27948 -0.16813,0.394797 0.18916,0.883509 0.226,0.309141 0.46634,0.720185 0.5341,0.913435 0.16646,0.474744 0.51075,0.340303 0.5478,-0.213904 z m 6.39215,-0.363968 c -0.16909,-0.425694 -0.39492,-0.77399 -0.5018,-0.77399 -0.20416,0 -0.85972,0.583584 -0.73974,0.658539 0.0382,0.0239 0.36332,0.269178 0.72239,0.545076 0.35908,0.275898 0.69198,0.466248 0.73975,0.422997 0.0478,-0.04325 -0.0515,-0.426928 -0.2206,-0.852622 z m 2.13691,0.216541 c 0.85169,-0.78556 0.8304,-0.831522 -0.56247,-1.21431 -0.84804,-0.233058 -1.30691,-0.182817 -1.30691,0.143086 0,0.373118 0.72477,1.767038 0.91877,1.767038 0.10792,0 0.53568,-0.313116 0.95061,-0.695814 z m -3.7574,-2.86042 c 0.0329,-0.07738 -0.34641,-0.11917 -0.8468,-0.09329 l -0.90637,0.04688 -0.67744,1.171369 c -0.37258,0.644253 -0.78122,1.281502 -0.90807,1.41611 -0.12685,0.134608 -0.1823,0.358776 -0.12323,0.498149 0.0831,0.195925 0.48113,-0.104135 1.75486,-1.322819 0.9061,-0.866926 1.67427,-1.639305 1.70705,-1.716397 z m -4.77135,-0.01247 c -0.50602,-0.177659 -0.58179,-0.08817 -0.41343,0.488261 l 0.15254,0.522204 0.30043,-0.445552 c 0.2918,-0.432764 0.29066,-0.448983 -0.0395,-0.564913 z m 4.58473,-0.667135 c 0.47217,-0.114544 0.49345,-0.451351 0.0423,-0.669896 -0.52397,-0.253835 -0.42471,-0.613217 0.16935,-0.613217 0.27945,0 0.50807,-0.06899 0.50807,-0.153305 0,-0.08432 -0.18654,-0.153302 -0.41454,-0.153302 -0.53877,0 -3.25374,-0.8896 -3.5594,-1.16629 -0.1297,-0.117396 -0.30313,-0.213447 -0.3854,-0.213447 -0.13567,0 -0.89075,0.821705 -0.89075,0.969334 0,0.03405 0.47633,0.253633 1.0585,0.487948 1.40122,0.563973 1.98994,0.952313 1.98994,1.312631 0,0.232365 0.11858,0.295717 0.55042,0.294075 0.30272,-0.0012 0.72188,-0.0437 0.93146,-0.09453 z"
       id="path7" />
  </g>
</svg>
