<?xml version="1.0" encoding="UTF-8" standalone="no"?>
<!-- Created with Inkscape (http://www.inkscape.org/) -->

<svg
   width="178.47726mm"
   height="65.979134mm"
   viewBox="0 0 178.47727 65.979134"
   version="1.1"
   id="svg1"
   inkscape:version="1.4.3 (0d15f75, 2025-12-25)"
   sodipodi:docname="logo-light-theme.svg"
   inkscape:export-filename="logo.png"
   inkscape:export-xdpi="96"
   inkscape:export-ydpi="96"
   xmlns:inkscape="http://www.inkscape.org/namespaces/inkscape"
   xmlns:sodipodi="http://sodipodi.sourceforge.net/DTD/sodipodi-0.dtd"
   xmlns="http://www.w3.org/2000/svg"
   xmlns:svg="http://www.w3.org/2000/svg">
  <sodipodi:namedview
     id="namedview1"
     pagecolor="#ffffff"
     bordercolor="#000000"
     borderopacity="0.25"
     inkscape:showpageshadow="2"
     inkscape:pageopacity="0.0"
     inkscape:pagecheckerboard="0"
     inkscape:deskcolor="#d1d1d1"
     inkscape:document-units="mm"
     inkscape:zoom="1.5448851"
     inkscape:cx="324.61962"
     inkscape:cy="118.45541"
     inkscape:window-width="1728"
     inkscape:window-height="1051"
     inkscape:window-x="0"
     inkscape:window-y="38"
     inkscape:window-maximized="1"
     inkscape:current-layer="layer1"
     showborder="false" />
  <defs
     id="defs1">
    <rect
       x="69.091232"
       y="248.10036"
       width="717.59192"
       height="232.91519"
       id="rect1" />
  </defs>
  <g
     inkscape:label="Layer 1"
     inkscape:groupmode="layer"
     id="layer1"
     transform="translate(-17.987016,-54.469223)">
    <text
       xml:space="preserve"
       transform="scale(0.26458333)"
       id="text1"
       style="font-size:85.3333px;writing-mode:lr-tb;direction:ltr;white-space:pre;shape-inside:url(#rect1);display:inline;fill:#1e1e1e;fill-opacity:1"><tspan
         x="69.091797"
         y="325.95176"
         id="tspan3"><tspan
           style="font-weight:bold;font-family:'Libre Baskerville';-inkscape-font-specification:'Libre Baskerville Bold'"
           id="tspan2">ALEX
</tspan></tspan><tspan
         x="69.091797"
         y="433.05122"
         id="tspan5"><tspan
           style="font-weight:bold;font-family:'Libre Baskerville';-inkscape-font-specification:'Libre Baskerville Bold'"
           id="tspan4">MARQUARDT</tspan></tspan></text>
    <path
       style="fill:#1e1e1e;fill-opacity:1;stroke-width:0.306578"
       d="m 111.83832,86.74251 c -1.48277,-0.150031 -1.99578,-0.516821 -2.02225,-1.445866 -0.0207,-0.724141 -0.0279,-0.72656 -0.32255,-0.106463 -0.44102,0.928332 -1.44945,0.775956 -2.48784,-0.375903 -0.80797,-0.896271 -0.89296,-1.19095 -0.7525,-2.608525 0.0873,-0.878964 0.25616,-1.788468 0.37572,-2.021119 0.18245,-0.354966 -0.10511,-0.407636 -1.78676,-0.327456 l -2.00418,0.09554 v 2.345514 2.345511 l 1.67189,0.194555 c 1.11643,0.129909 1.78084,0.366782 1.99979,0.712929 0.47197,0.746168 0.4203,0.837457 -0.47415,0.837457 -0.63795,0 -0.76638,-0.115386 -0.62772,-0.564005 0.15065,-0.48723 0.01,-0.564007 -1.0311,-0.564007 -0.98322,0 -1.2054,0.103967 -1.2054,0.564007 0,0.41755 -0.22221,0.564005 -0.85572,0.564005 -0.70402,0 -0.8182,-0.09997 -0.64414,-0.564005 0.19044,-0.507813 0.0599,-0.564007 -1.3107,-0.564007 -1.300115,0 -1.522319,0.08232 -1.522319,0.564007 0,0.376004 -0.222183,0.564005 -0.666592,0.564005 -0.744054,0 -0.890823,-0.623572 -0.249968,-1.061905 0.229149,-0.156721 1.204033,-0.374525 2.166429,-0.483996 l 1.7498,-0.19904 v -2.370557 -2.370562 h -2.475904 c -1.666938,0 -2.626992,-0.127818 -2.938266,-0.391188 -0.408157,-0.345345 -0.926452,-3.177151 -2.240048,-12.239106 -0.225661,-1.556821 0.227353,-2.41587 0.888484,-1.684822 0.326478,0.360986 2.109899,10.154388 2.103226,11.549473 l -0.004,0.759391 4.198868,0.08662 c 2.30939,0.04765 4.26802,-0.0087 4.35256,-0.12487 0.0844,-0.116322 -1.16759,-0.211975 -2.78238,-0.212552 -3.405118,-0.0012 -4.901013,-0.538557 -5.239275,-1.881954 -0.110246,-0.437813 -0.06537,-2.584705 0.0997,-4.77088 0.316759,-4.196579 0.655645,-5.179866 2.296765,-6.664283 0.78736,-0.712183 0.82152,-0.850145 0.46189,-1.865736 -0.6213,-1.754619 -0.49806,-2.196889 0.80164,-2.876521 2.33661,-1.221858 3.98479,-0.575667 4.21657,1.653173 0.1723,1.656046 -0.27868,2.87112 -1.06549,2.87112 -1.14071,0 -1.44734,0.696339 -1.0218,2.320539 0.60926,2.325451 1.32848,3.815795 1.94652,4.033462 0.3118,0.109817 1.84178,0.238755 3.39994,0.286526 1.55815,0.04776 3.00979,0.09601 3.22584,0.107196 0.5385,0.02791 1.48366,0.860879 1.28514,1.132649 -0.20607,0.282123 2.84458,0.595562 3.78067,0.388441 0.51464,-0.113872 0.70736,-0.378049 0.70736,-0.969635 0,-0.80577 -0.43338,-1.078522 -0.83659,-0.526512 -0.45647,0.624906 -0.82957,-0.119161 -0.82376,-1.642758 0.007,-1.69038 0.80032,-6.913286 1.17714,-7.744107 0.12179,-0.268308 0.50516,-0.487833 0.85219,-0.487833 0.59429,0 0.63091,0.27832 0.63091,4.794046 0,3.008031 -0.12413,4.794045 -0.33331,4.794045 -0.18339,0 -0.33327,0.380704 -0.33327,0.846008 0,0.796898 0.0762,0.84601 1.31353,0.84601 1.38947,0 2.08186,0.460758 1.31221,0.873219 -0.25259,0.135384 -0.79677,0.248099 -1.20922,0.250473 l -0.74994,0.0042 v 6.23046 c 0,5.993296 0.0254,6.236075 0.6666,6.377953 1.24593,0.275673 0.67292,0.645714 -0.99991,0.645714 -0.91654,0 -1.66646,-0.126898 -1.66646,-0.282004 0,-0.1551 0.22498,-0.282001 0.49995,-0.282001 0.42957,0 0.49993,-0.893008 0.49993,-6.345063 v -6.345059 h -3.83293 c -3.56682,0 -3.8329,-0.03786 -3.8329,-0.545275 0,-0.379154 0.27922,-0.580071 0.91654,-0.659493 0.50414,-0.06282 -0.99885,-0.102985 -3.33994,-0.08923 -3.59286,0.02109 -4.24181,0.09093 -4.16223,0.447989 0.0595,0.267438 1.16117,0.682284 2.99529,1.128013 1.59555,0.387753 3.05658,0.83865 3.24673,1.001995 0.45087,0.387352 3.35437,9.470813 3.12682,9.782287 -0.30552,0.418275 0.53603,0.994884 1.72819,1.184113 1.07873,0.171224 1.48101,0.530979 0.90467,0.809047 -0.48293,0.233003 -2.59517,0.383189 -3.74824,0.266507 z"
       id="path4" />
    <path
       style="fill:#1e1e1e;fill-opacity:1;stroke-width:0.277846"
       d="m 126.72253,86.206831 c -0.51823,-0.304239 -1.21792,-0.689226 -1.55487,-0.855524 -0.96658,-0.477057 -0.95621,-0.949988 0.063,-2.870603 0.52441,-0.988262 0.95347,-1.84039 0.95347,-1.893622 0,-0.05324 -0.33314,-0.137618 -0.74032,-0.187521 l -0.74032,-0.09074 V 77.44124 74.573656 l 1.09477,-0.08561 c 0.96058,-0.07511 1.13351,-0.199646 1.41056,-1.015746 0.17367,-0.511577 0.37165,-2.215111 0.43996,-3.78563 0.0683,-1.570522 0.30079,-4.059946 0.51663,-5.53206 0.38374,-2.617199 0.42077,-2.705483 1.66977,-3.980224 l 1.27731,-1.303659 -0.61587,-0.494827 c -0.585,-0.470026 -0.5995,-0.567495 -0.28936,-1.944537 0.25946,-1.152044 0.47949,-1.517216 1.07163,-1.778473 0.85174,-0.375797 1.99419,-0.155065 2.48982,0.48106 0.18587,0.238554 0.33794,1.148765 0.33794,2.022687 0,1.322103 -0.10012,1.659755 -0.59611,2.010553 -0.7737,0.547201 -0.75581,0.717963 0.23606,2.253571 0.60877,0.942478 0.90772,1.841683 1.11356,3.34939 0.33016,2.418343 1.17543,4.362851 2.51832,5.793265 0.78496,0.836131 0.90403,1.10462 0.6401,1.443379 -0.45327,0.581752 -1.26824,0.519082 -1.45628,-0.111988 -0.0866,-0.290489 -0.47524,-0.838914 -0.86374,-1.218723 l -0.70636,-0.690563 0.18254,0.809172 c 0.10043,0.445046 0.36017,2.122583 0.57725,3.727859 0.2498,1.847209 0.80478,4.102994 1.51176,6.144719 l 1.11706,3.226033 h 1.30499 c 0.71773,0 1.30498,0.130936 1.30498,0.290974 0,0.459688 -1.67606,1.427322 -2.47431,1.428504 -0.39845,5.74e-4 -0.79933,0.130114 -0.89084,0.287831 -0.27313,0.470745 -1.21603,0.324897 -1.39041,-0.215069 -0.0891,-0.276005 -0.68009,-1.79224 -1.31322,-3.36941 -0.63314,-1.577173 -1.38527,-3.608466 -1.67141,-4.513988 -0.28613,-0.905524 -0.59997,-1.561483 -0.69742,-1.457689 -0.0975,0.103797 -0.17716,0.99217 -0.17716,1.974171 0,1.989734 -0.12714,2.133575 -1.88575,2.133575 -0.96648,0 -1.09702,0.107189 -1.99708,1.639888 -0.52964,0.901939 -0.96298,1.859196 -0.96298,2.127235 0,0.747843 0.29311,1.394047 0.63453,1.398919 0.16924,0.0023 0.48942,0.131456 0.71153,0.286758 0.35894,0.250995 0.35894,0.313743 0,0.564736 -0.59544,0.416354 -1.10201,0.354517 -2.1537,-0.262907 z m 2.6921,-12.206693 c 0,-0.310653 -0.29911,-0.430137 -1.07683,-0.430137 -1.01048,0 -1.31346,0.225908 -0.89737,0.669102 0.0987,0.10514 0.58328,0.191173 1.07685,0.191173 0.61818,0 0.89735,-0.133821 0.89735,-0.430138 z m 0.70108,-0.352474 c -0.27365,-0.291493 -0.49945,0.147362 -0.27492,0.534339 0.16961,0.292328 0.23302,0.292554 0.32421,0.0012 0.0623,-0.199237 0.0402,-0.440211 -0.0492,-0.535497 z"
       id="path6" />
    <path
       id="path3"
       style="fill:#1e1e1e;fill-opacity:1;stroke-width:0.131364"
       d="m 149.44713,55.847615 c -0.52506,-0.01795 -1.35152,0.204011 -1.95467,0.540392 -0.88637,0.494333 -0.90493,1.7988 -0.0502,3.523363 l 0.41783,0.843014 -0.42319,0.374761 c -0.88626,0.784263 -1.19604,2.148901 -0.9302,4.097532 0.52285,3.832632 0.55884,5.552085 0.18053,8.611706 l -0.0811,0.657118 h 0.46485 0.46486 l -0.0427,1.417992 c -0.0425,1.415587 -0.0436,1.419985 -0.66,2.593886 -0.33961,0.646743 -1.11419,2.234202 -1.72127,3.527686 l -1.10366,2.351791 0.36984,0.346121 c 0.38327,0.35883 0.89064,0.607725 2.55156,1.252092 0.90647,0.351663 1.54331,0.408669 2.17175,0.194001 0.27309,-0.09328 0.0164,-0.482331 -0.51211,-0.776005 -0.28313,-0.157304 -0.66323,-0.439776 -0.84444,-0.627937 l -0.32938,-0.342067 0.98427,-1.808967 c 0.5414,-0.994913 0.98453,-1.840073 0.98453,-1.877866 0,-0.0378 0.13228,-0.261176 0.29405,-0.496621 0.72208,-1.050818 1.11069,-2.236128 1.27056,-3.874349 0.0885,-0.90747 0.17188,-0.864069 0.50993,0.264522 0.11395,0.380437 0.67289,1.750009 1.24204,3.043495 1.07492,2.442989 1.70054,4.018715 1.98561,5.000529 0.0917,0.315574 0.26088,0.775663 0.37592,1.022423 l 0.20904,0.448796 0.98429,-0.0843 c 1.31012,-0.112037 3.23252,-0.829942 3.23252,-1.207238 0,-0.259909 -0.8135,-0.723346 -1.41209,-0.804376 l -0.64613,-0.08728 -0.33401,-1.106726 c -0.18374,-0.608699 -0.7009,-2.382917 -1.14899,-3.942708 -0.66164,-2.303218 -1.33983,-4.359892 -1.90495,-5.775723 -0.0413,-0.103452 0.0239,-0.17384 0.16249,-0.175086 0.12741,-0.0011 0.31352,-0.05969 0.41369,-0.129963 0.15749,-0.110469 0.15402,-0.16243 -0.0263,-0.383408 -0.54692,-0.670244 -0.83086,-2.037819 -1.02033,-4.914336 -0.0696,-1.057561 -0.078,-1.050993 0.87586,-0.724397 0.33678,0.115312 1.04778,0.249302 1.57996,0.297486 0.8097,0.07331 1.0059,0.04914 1.20184,-0.147527 0.42824,-0.429804 0.55688,-1.337509 0.47095,-3.324772 l -0.0796,-1.837606 1.39554,-0.07349 c 1.2727,-0.0669 1.41643,-0.101898 1.63282,-0.398272 0.1787,-0.244835 0.22227,-0.47013 0.17712,-0.914344 l -0.0597,-0.58957 h 0.59252 c 1.06734,0 2.12743,0.515717 2.52454,1.228315 l 0.27018,0.484732 0.1764,-0.476085 c 0.22826,-0.615787 0.13708,-2.612848 -0.15447,-3.381241 l -0.21001,-0.553362 -0.4383,0.585245 c -0.34707,0.463385 -0.59857,0.639664 -1.2094,0.847607 -0.91829,0.312624 -2.1168,0.527708 -3.61356,0.648472 -0.91303,0.07366 -1.14968,0.04938 -1.41917,-0.146447 -0.76441,-0.555471 -1.16359,-0.527953 -2.16323,0.149957 -0.32126,0.217867 -0.71031,0.313953 -1.46812,0.362605 -0.82469,0.05295 -1.06732,0.119182 -1.21184,0.330991 -0.61968,0.908197 0.54166,1.954395 1.53635,1.383946 0.21075,-0.120858 0.66941,-0.21967 1.01937,-0.21967 0.60811,0 0.64439,0.02106 0.81714,0.479599 0.0994,0.263863 0.18078,0.70312 0.18078,0.97622 0,0.528765 -0.23011,1.727947 -0.36375,1.89597 -0.0615,0.07733 -1.26901,-0.242212 -1.48568,-0.393137 -0.0223,-0.01551 0.32909,-0.546408 0.78061,-1.179676 0.45153,-0.633269 0.80207,-1.213909 0.77915,-1.290191 -0.023,-0.07628 -0.28231,-0.191365 -0.57645,-0.255876 -0.49094,-0.107681 -0.57194,-0.08239 -0.98817,0.309376 -0.24937,0.234716 -0.63392,0.588012 -0.85443,0.784921 l -0.40078,0.358011 -0.93555,-0.526884 c -1.06475,-0.599776 -1.57246,-1.009886 -1.36776,-1.104564 0.51639,-0.238843 0.59491,-0.432224 0.61445,-1.514723 0.0116,-0.641343 -0.0444,-1.216908 -0.13766,-1.416369 -0.1279,-0.273417 -0.12505,-0.437461 0.0156,-0.87949 l 0.17273,-0.543094 -0.57961,-0.407729 c -0.31878,-0.224216 -0.77591,-0.448571 -1.01594,-0.498512 -0.0612,-0.01269 -0.13014,-0.02014 -0.20515,-0.02271 z m 2.53159,3.863809 c -0.0567,6.81e-4 -0.0996,0.07818 -0.0996,0.189137 0,0.126813 0.0491,0.194075 0.10915,0.149691 0.15459,-0.114293 0.16233,-0.279991 0.0156,-0.334233 -0.008,-0.0031 -0.017,-0.0047 -0.0251,-0.0046 z m 6.95087,0.258308 c 0.90125,0 1.11047,0.04364 1.34022,0.281006 0.41091,0.424558 0.16419,0.735433 -0.67023,0.844093 -1.434,0.186738 -2.47876,0.236397 -2.54304,0.121047 -0.0904,-0.162209 0.15274,-0.317356 0.31891,-0.203459 0.22995,0.157609 0.638,-0.372721 0.55817,-0.725477 -0.0707,-0.312352 -0.0552,-0.317211 0.99597,-0.31721 z m -4.9918,0.118618 c 0.39493,0.0052 0.74024,0.03413 0.76719,0.06405 0.15486,0.171736 -0.16342,0.475665 -0.64855,0.619562 -0.78259,0.232135 -1.05498,0.212683 -1.05274,-0.07592 0.004,-0.491717 0.1968,-0.61744 0.9341,-0.607672 z" />
    <path
       style="fill:#000000;stroke-width:0.291331"
       d="m 165.90532,86.440222 c -1.37105,-0.315454 -3.40962,-1.936484 -4.09009,-3.252355 -0.7571,-1.464114 -0.66563,-4.193988 0.19214,-5.733859 1.63789,-2.940319 5.73324,-4.066017 8.61236,-2.367297 l 0.93963,0.554392 0.78922,-0.823766 c 0.6734,-0.702886 0.74915,-0.944757 0.51616,-1.648331 -0.20323,-0.613736 -0.49077,-0.849781 -1.12456,-0.923178 -1.1707,-0.135575 -1.68546,-0.588437 -1.25645,-1.105368 0.23425,-0.28226 0.23748,-0.398343 0.011,-0.398343 -0.45325,0 -1.20848,-1.570741 -1.20848,-2.513401 0,-0.436894 0.51897,-1.866566 1.15328,-3.177053 1.05619,-2.182053 1.31377,-2.487253 3.05899,-3.6243 1.85037,-1.205569 1.90568,-1.277344 1.90568,-2.47322 0,-1.465273 0.65119,-2.195917 1.95716,-2.195917 0.49038,0 1.18483,0.237438 1.54321,0.527639 0.64544,0.522643 0.64704,0.543329 0.16979,2.184983 -0.41824,1.43869 -0.57682,1.657344 -1.202,1.657344 -0.71932,0 -0.9485,0.510761 -0.46404,1.034225 0.14088,0.152221 0.41252,0.766181 0.60363,1.364357 0.19291,0.603704 0.73344,1.362395 1.21494,1.705248 1.71363,1.220221 5.05461,2.912993 5.15498,2.611879 0.17829,-0.534896 1.47379,-0.336257 1.80157,0.276237 0.22618,0.422599 0.21643,0.760948 -0.0354,1.231659 -0.3194,0.59677 -0.36235,0.606221 -0.53381,0.117422 -0.16937,-0.482868 -0.22184,-0.488945 -0.57257,-0.06635 -0.21237,0.255886 -0.56672,0.465243 -0.78745,0.465243 -1.00839,0 0.24807,3.612958 1.40746,4.047182 0.57172,0.214129 0.69393,0.140254 0.85156,-0.514768 l 0.18403,-0.764771 0.0345,0.768084 c 0.0302,0.672194 0.18905,0.791488 1.27263,0.955578 3.86792,0.58572 6.21118,4.173426 5.19374,7.951967 -1.2972,4.81746 -8.22474,5.863197 -11.15841,1.684413 -1.7503,-2.493174 -1.3636,-5.734671 0.96154,-8.0598 1.2362,-1.236202 1.39409,-1.520066 1.12512,-2.022666 -0.1721,-0.321558 -0.41632,-0.54391 -0.54275,-0.494115 -0.12641,0.0498 -1.64992,1.576266 -3.38557,3.392162 -2.87104,3.003772 -3.12267,3.354572 -2.78923,3.888507 0.20159,0.322781 0.32465,0.615277 0.2735,0.649985 -0.0512,0.0347 -0.69647,0.546338 -1.43401,1.136954 -0.73755,0.590616 -1.4586,1.071839 -1.60233,1.069386 -0.14373,-0.0023 -0.0717,-0.124441 0.16011,-0.271089 0.34768,-0.219964 0.29755,-0.366943 -0.28644,-0.839825 l -0.70786,-0.573201 -0.38513,0.917123 c -1.14394,2.724064 -4.49017,4.348397 -7.5213,3.650991 z m 4.08669,-1.791841 c 0.62847,-0.357885 1.18024,-0.7818 1.22613,-0.942033 0.0459,-0.160232 -0.62003,-0.768865 -1.47987,-1.352519 -1.13052,-0.767392 -1.65146,-0.973068 -1.88164,-0.742894 -0.23018,0.230171 -0.41557,0.221021 -0.66964,-0.03306 -0.27425,-0.274249 -0.6418,-0.07926 -1.6749,0.888559 l -1.32355,1.239907 1.15051,-1.237276 c 1.51656,-1.630938 1.4911,-2.340876 -0.14592,-4.069669 l -1.29642,-1.369101 1.39109,1.238573 c 0.86425,0.769507 1.52625,1.15377 1.74798,1.014649 0.19629,-0.123161 0.59756,-0.184282 0.8917,-0.135821 0.58383,0.09618 1.39928,-0.53643 2.27488,-1.764838 l 0.56182,-0.788196 -0.94127,-0.486748 c -1.12999,-0.584346 -3.43228,-0.588902 -4.54692,-0.009 -2.48935,1.295118 -3.4856,4.204749 -2.25467,6.585089 1.23511,2.388445 4.5738,3.329299 6.97069,1.964373 z m 19.37592,0.233756 c 1.6351,-0.845542 2.82093,-2.841291 2.73258,-4.598929 -0.0547,-1.087836 -0.11108,-1.268551 -0.69453,-2.225599 l -0.602,-0.987444 -1.29056,1.2666 c -1.48937,1.461704 -1.61743,2.001469 -0.48942,2.06293 l 0.80117,0.04364 -0.80117,0.121367 c -0.44064,0.06674 -0.80116,0.206017 -0.80116,0.309484 0,0.10347 0.55717,0.77423 1.23816,1.490584 l 1.23816,1.302462 -1.4194,-1.213812 c -0.78067,-0.667595 -1.53448,-1.142677 -1.67516,-1.055743 -0.14067,0.08693 -0.28,0.969701 -0.30964,1.961694 l -0.0539,1.803624 -0.0998,-1.602321 c -0.15823,-2.541598 -0.22955,-2.58769 -1.76896,-1.143072 -1.29787,1.217959 -1.31396,1.22473 -0.29294,0.123284 1.44987,-1.564053 1.37257,-2.38835 -0.35254,-3.75932 -0.72105,-0.573021 -1.39438,-1.043128 -1.4963,-1.044683 -0.10198,-0.0015 -0.39756,0.444477 -0.65699,0.991183 -0.7415,1.562598 -0.20375,3.927478 1.17727,5.177288 1.53708,1.391039 3.99084,1.817734 5.61707,0.976775 z m -17.0342,-2.75573 0.42129,-0.814664 -1.93446,-0.180641 c -1.06394,-0.09935 -1.98741,-0.127663 -2.05215,-0.06292 -0.19218,0.192157 2.6681,2.16703 2.91634,2.013607 0.12523,-0.07739 0.41727,-0.507321 0.64898,-0.955388 z m 0.44857,-2.431063 c 0,-0.203154 -0.34172,-0.872239 -0.75936,-1.486861 l -0.75935,-1.117494 -1.27997,1.256188 c -0.70397,0.690902 -1.27997,1.359992 -1.27997,1.486861 0,0.126871 0.9177,0.230672 2.03933,0.230672 1.45255,0 2.03932,-0.106278 2.03932,-0.369366 z m 1.94517,-1.255423 0.0516,-0.851525 -0.21196,0.873994 -0.21197,0.873992 -0.22243,-1.165323 c -0.32521,-1.703745 -0.83389,-3.350308 -1.03505,-3.350308 -0.0963,0 -0.3468,0.27488 -0.55661,0.610843 -0.33168,0.531111 -0.28922,0.750253 0.32539,1.678976 0.38878,0.587475 0.80222,1.368603 0.91878,1.735844 0.28633,0.902178 0.8786,0.646693 0.94233,-0.406493 z m 10.99587,-0.691665 c -0.29089,-0.808966 -0.67935,-1.470849 -0.86321,-1.470849 -0.3512,0 -1.47889,1.109012 -1.27252,1.251453 0.0657,0.04541 0.62499,0.511531 1.24268,1.035833 0.6177,0.524303 1.19034,0.886033 1.27252,0.803843 0.0822,-0.08218 -0.0886,-0.811313 -0.37947,-1.62028 z m 3.67592,0.411504 c 1.4651,-1.492838 1.42848,-1.580182 -0.96756,-2.307612 -1.4588,-0.44289 -2.24817,-0.347416 -2.24817,0.271913 0,0.709056 1.24677,3.357987 1.5805,3.357987 0.18562,0 0.92147,-0.595029 1.63523,-1.322288 z m -6.46352,-5.435795 c 0.0566,-0.147051 -0.59589,-0.226465 -1.45666,-0.177283 l -1.55917,0.08909 -1.16533,2.226008 c -0.64092,1.224304 -1.34386,2.4353 -1.56208,2.691101 -0.21821,0.255803 -0.31359,0.681799 -0.21197,0.946656 0.14288,0.372327 0.82764,-0.197891 3.01874,-2.513816 1.55867,-1.647461 2.88008,-3.11525 2.93647,-3.261752 z m -8.20772,-0.02369 c -0.87047,-0.337616 -1.00081,-0.167559 -0.71119,0.927864 l 0.2624,0.992371 0.51679,-0.846705 c 0.50196,-0.822403 0.50001,-0.853224 -0.068,-1.07353 z m 7.88671,-1.267791 c 0.81221,-0.217672 0.84883,-0.857723 0.0727,-1.273035 -0.90133,-0.482374 -0.73059,-1.165325 0.29133,-1.165325 0.4807,0 0.87399,-0.131099 0.87399,-0.291332 0,-0.16023 -0.3209,-0.291329 -0.71309,-0.291329 -0.92681,0 -5.59713,-1.690549 -6.12294,-2.216358 -0.2231,-0.223092 -0.52143,-0.405622 -0.66298,-0.405622 -0.23336,0 -1.53226,1.561525 -1.53226,1.842071 0,0.06472 0.81939,0.481992 1.82083,0.927271 2.4104,1.071747 3.42313,1.809727 3.42313,2.494456 0,0.441576 0.20398,0.561967 0.94684,0.558845 0.52074,-0.0023 1.24179,-0.08303 1.60231,-0.179642 z"
       id="path7" />
  </g>
</svg>
