<?xml version="1.0" encoding="UTF-8" standalone="no"?>
<!-- Created with Inkscape (http://www.inkscape.org/) -->

<svg
   width="178.47726mm"
   height="65.979134mm"
   viewBox="0 0 178.47727 65.979134"
   version="1.1"
   id="svg1"
   inkscape:version="1.4.3 (0d15f75, 2025-12-25)"
   sodipodi:docname="logo-light-theme.svg"
   inkscape:export-filename="logo.png"
   inkscape:export-xdpi="96"
   inkscape:export-ydpi="96"
   xmlns:inkscape="http://www.inkscape.org/namespaces/inkscape"
   xmlns:sodipodi="http://sodipodi.sourceforge.net/DTD/sodipodi-0.dtd"
   xmlns="http://www.w3.org/2000/svg"
   xmlns:svg="http://www.w3.org/2000/svg">
  <sodipodi:namedview
     id="namedview1"
     pagecolor="#ffffff"
     bordercolor="#000000"
     borderopacity="0.25"
     inkscape:showpageshadow="2"
     inkscape:pageopacity="0.0"
     inkscape:pagecheckerboard="0"
     inkscape:deskcolor="#d1d1d1"
     inkscape:document-units="mm"
     inkscape:zoom="1.2097557"
     inkscape:cx="339.738"
     inkscape:cy="185.98796"
     inkscape:window-width="1728"
     inkscape:window-height="1051"
     inkscape:window-x="365"
     inkscape:window-y="315"
     inkscape:window-maximized="0"
     inkscape:current-layer="layer1"
     showborder="false" />
  <defs
     id="defs1">
    <rect
       x="69.091232"
       y="248.10036"
       width="717.59192"
       height="232.91519"
       id="rect1" />
  </defs>
  <g
     inkscape:label="Layer 1"
     inkscape:groupmode="layer"
     id="layer1"
     transform="translate(-17.987016,-54.469223)">
    <text
       xml:space="preserve"
       transform="scale(0.26458333)"
       id="text1"
       style="font-size:85.3333px;writing-mode:lr-tb;direction:ltr;white-space:pre;shape-inside:url(#rect1);display:inline;fill:#1e1e1e;fill-opacity:1"><tspan
         x="69.091797"
         y="325.95176"
         id="tspan6"><tspan
           style="font-weight:bold;font-family:'Libre Baskerville';-inkscape-font-specification:'Libre Baskerville Bold'"
           id="tspan1">ALEX
</tspan></tspan><tspan
         x="69.091797"
         y="433.05122"
         id="tspan8"><tspan
           style="font-weight:bold;font-family:'Libre Baskerville';-inkscape-font-specification:'Libre Baskerville Bold'"
           id="tspan7">MARQUARDT</tspan></tspan></text>
    <path
       style="fill:#1e1e1e;fill-opacity:1;stroke-width:0.239354"
       d="m 119.00374,86.37201 c -1.21676,-0.111443 -1.63772,-0.383897 -1.65944,-1.073996 -0.017,-0.537895 -0.0229,-0.539692 -0.26469,-0.07908 -0.36189,0.68957 -1.1894,0.576385 -2.04149,-0.279222 -0.66301,-0.665754 -0.73275,-0.884643 -0.61749,-1.937625 0.0717,-0.652898 0.2102,-1.328483 0.30831,-1.501297 0.14972,-0.26367 -0.0863,-0.302794 -1.4662,-0.243235 l -1.6446,0.07097 v 1.742259 1.742256 l 1.37193,0.144517 c 0.91613,0.0965 1.46134,0.272448 1.64101,0.529567 0.38729,0.554258 0.34488,0.622067 -0.38909,0.622067 -0.52349,0 -0.62888,-0.08571 -0.5151,-0.418945 0.12362,-0.361918 0.009,-0.418948 -0.84611,-0.418948 -0.80682,0 -0.98913,0.07722 -0.98913,0.418948 0,0.310158 -0.18235,0.418945 -0.7022,0.418945 -0.57771,0 -0.67141,-0.07426 -0.52857,-0.418945 0.15627,-0.377206 0.0492,-0.418948 -1.07555,-0.418948 -1.06687,0 -1.24921,0.06115 -1.24921,0.418948 0,0.279297 -0.18232,0.418945 -0.547,0.418945 -0.61057,0 -0.73101,-0.463192 -0.20512,-0.788788 0.18803,-0.116413 0.98802,-0.278199 1.77776,-0.359515 l 1.43587,-0.147852 V 83.052175 81.29131 h -2.03171 c -1.36788,0 -2.1557,-0.09494 -2.41113,-0.290576 -0.33493,-0.256524 -0.76023,-2.360003 -1.83816,-9.091267 -0.18518,-1.156414 0.18656,-1.79452 0.72908,-1.251494 0.2679,0.268142 1.73137,7.542728 1.7259,8.579005 l -0.003,0.564079 3.44556,0.06434 c 1.89506,0.03539 3.5023,-0.0064 3.57167,-0.09275 0.0693,-0.0864 -0.95811,-0.157456 -2.28319,-0.157884 -2.79422,-8.6e-4 -4.02173,-0.400043 -4.29931,-1.397925 -0.0905,-0.32521 -0.0536,-1.919931 0.0818,-3.543833 0.25993,-3.117239 0.53803,-3.847629 1.88471,-4.950262 0.6461,-0.529012 0.67414,-0.631491 0.37903,-1.385877 -0.50984,-1.303339 -0.4087,-1.63186 0.65782,-2.136694 1.9174,-0.907601 3.26987,-0.427608 3.46008,1.227985 0.14138,1.230119 -0.22868,2.132682 -0.87433,2.132682 -0.93606,0 -1.18767,0.517244 -0.83848,1.723708 0.49995,1.727356 1.09013,2.83439 1.59729,2.996075 0.25586,0.08157 1.51135,0.177348 2.78996,0.212833 1.2786,0.03548 2.4698,0.07131 2.64709,0.07963 0.44188,0.02073 1.21747,0.639466 1.05457,0.841337 -0.1691,0.209563 2.33423,0.442387 3.10238,0.288537 0.42231,-0.08459 0.58045,-0.280817 0.58045,-0.72025 0,-0.59853 -0.35563,-0.801131 -0.6865,-0.391096 -0.37458,0.464184 -0.68073,-0.08851 -0.67597,-1.220248 0.006,-1.255623 0.65674,-5.135222 0.96595,-5.75236 0.0999,-0.199301 0.41453,-0.362365 0.6993,-0.362365 0.48766,0 0.51772,0.206737 0.51772,3.56104 0,2.234381 -0.10186,3.561041 -0.27351,3.561041 -0.15049,0 -0.27348,0.282788 -0.27348,0.628418 0,0.591939 0.0625,0.62842 1.07787,0.62842 1.14019,0 1.70835,0.342253 1.07678,0.648631 -0.20726,0.100565 -0.65383,0.18429 -0.99227,0.186053 l -0.61539,0.0031 v 4.628016 c 0,4.451849 0.0209,4.632186 0.54699,4.737574 1.02241,0.204771 0.55219,0.479639 -0.8205,0.479639 -0.75211,0 -1.36749,-0.09426 -1.36749,-0.209473 0,-0.115209 0.18461,-0.209472 0.41026,-0.209472 0.3525,0 0.41024,-0.663331 0.41024,-4.713143 v -4.713141 h -3.14527 c -2.9269,0 -3.14524,-0.02812 -3.14524,-0.405032 0,-0.281638 0.22913,-0.43088 0.7521,-0.489875 0.4137,-0.04667 -0.81964,-0.07649 -2.74072,-0.06628 -2.94824,0.01566 -3.48077,0.06754 -3.41546,0.332769 0.0488,0.198654 0.95284,0.506803 2.4579,0.837893 1.30929,0.288025 2.50819,0.622953 2.66423,0.744287 0.36998,0.287726 2.75256,7.034965 2.56584,7.266329 -0.25072,0.310697 0.43986,0.739005 1.41813,0.879566 0.8852,0.127186 1.2153,0.394413 0.74236,0.600964 -0.39629,0.173075 -2.12956,0.284634 -3.07577,0.197963 z"
       id="path4" />
    <path
       style="fill:#1e1e1e;fill-opacity:1;stroke-width:0.216922"
       d="m 131.21755,85.974106 c -0.42524,-0.225991 -0.99941,-0.511961 -1.2759,-0.635487 -0.79317,-0.354361 -0.78466,-0.705657 0.0517,-2.132298 0.43033,-0.734086 0.78241,-1.367051 0.78241,-1.406592 0,-0.03954 -0.27337,-0.102223 -0.6075,-0.139291 l -0.6075,-0.0674 V 79.462985 77.33293 l 0.89836,-0.06359 c 0.78824,-0.05579 0.93014,-0.148298 1.15749,-0.754501 0.14251,-0.380002 0.30497,-1.645396 0.36102,-2.811984 0.0561,-1.166592 0.24683,-3.015748 0.42395,-4.109241 0.31489,-1.944068 0.34528,-2.009646 1.37019,-2.95653 l 1.04814,-0.968364 -0.50537,-0.367559 c -0.48004,-0.349138 -0.49194,-0.421539 -0.23744,-1.444412 0.21291,-0.855744 0.39346,-1.126995 0.87937,-1.321059 0.69892,-0.279143 1.6364,-0.115183 2.04311,0.357334 0.15252,0.177199 0.27732,0.853308 0.27732,1.502462 0,0.982065 -0.0822,1.232874 -0.48917,1.493448 -0.63489,0.406464 -0.62021,0.533306 0.19371,1.673964 0.49955,0.700077 0.74486,1.368011 0.91378,2.487943 0.27093,1.796357 0.96454,3.240747 2.0665,4.303265 0.64414,0.621082 0.74184,0.820517 0.52527,1.072148 -0.37196,0.432129 -1.04071,0.385577 -1.19501,-0.08319 -0.0711,-0.215777 -0.38998,-0.62315 -0.70878,-0.905274 l -0.57964,-0.512953 0.14979,0.601057 c 0.0824,0.330583 0.29556,1.576664 0.47369,2.769072 0.20499,1.372115 0.66039,3.047723 1.24053,4.564326 l 0.91665,2.396313 h 1.07086 c 0.58896,0 1.07086,0.09726 1.07086,0.216137 0,0.341458 -1.37536,1.060222 -2.03039,1.0611 -0.32697,4.26e-4 -0.65593,0.09665 -0.73102,0.213802 -0.22413,0.349671 -0.99786,0.241335 -1.14096,-0.159754 -0.0731,-0.205018 -0.55807,-1.331285 -1.07761,-2.502814 -0.51955,-1.171532 -1.13674,-2.680386 -1.37154,-3.353012 -0.2348,-0.672628 -0.49233,-1.159878 -0.57229,-1.082779 -0.08,0.0771 -0.14538,0.736989 -0.14538,1.466424 0,1.477984 -0.10433,1.58483 -1.54743,1.58483 -0.79308,0 -0.9002,0.07962 -1.63878,1.218117 -0.43462,0.669964 -0.79021,1.381019 -0.79021,1.58012 0,0.555502 0.24053,1.035505 0.52069,1.039124 0.13887,0.0017 0.40161,0.09765 0.58387,0.213005 0.29455,0.18644 0.29455,0.23305 0,0.419489 -0.48861,0.309269 -0.90429,0.263337 -1.7673,-0.195289 z m 2.20912,-9.067191 c 0,-0.230754 -0.24545,-0.319507 -0.88364,-0.319507 -0.82919,0 -1.07781,0.167805 -0.73637,0.497012 0.081,0.0781 0.47863,0.142004 0.88365,0.142004 0.50727,0 0.73636,-0.0994 0.73636,-0.319509 z m 0.57529,-0.261819 c -0.22455,-0.216522 -0.40984,0.109461 -0.22559,0.39691 0.13918,0.217142 0.19121,0.21731 0.26604,8.59e-4 0.0512,-0.147994 0.033,-0.32699 -0.0403,-0.39777 z"
       id="path6" />
    <path
       id="path3"
       style="fill:#1e1e1e;fill-opacity:1;stroke-width:0.10256"
       d="m 149.86512,63.423134 c -0.43086,-0.01333 -1.10904,0.15154 -1.60398,0.401405 -0.72735,0.367194 -0.74258,1.336157 -0.0412,2.617172 l 0.34287,0.626194 -0.34726,0.278374 c -0.72726,0.582555 -0.98146,1.596215 -0.76332,3.043667 0.42905,2.846897 0.45858,4.124116 0.14815,6.396817 l -0.0665,0.488111 h 0.38145 0.38146 l -0.035,1.053291 c -0.0348,1.051505 -0.0358,1.054772 -0.54158,1.92675 -0.27868,0.480405 -0.9143,1.659577 -1.41246,2.620383 l -0.90566,1.746921 0.30349,0.257101 c 0.31451,0.266541 0.73085,0.451421 2.09379,0.93006 0.74383,0.261217 1.26642,0.303561 1.78211,0.144105 0.2241,-0.06929 0.0135,-0.358278 -0.42023,-0.576421 -0.23234,-0.116846 -0.54424,-0.326667 -0.69294,-0.466435 l -0.27029,-0.254088 0.80769,-1.34371 c 0.44426,-0.739026 0.80789,-1.366815 0.80789,-1.394887 0,-0.02808 0.10855,-0.194003 0.24129,-0.368893 0.59254,-0.780553 0.91142,-1.661006 1.04261,-2.877885 0.0726,-0.674073 0.14104,-0.641835 0.41844,0.196488 0.0935,0.28259 0.55217,1.299915 1.01921,2.260723 0.88207,1.814664 1.39545,2.985121 1.62937,3.714417 0.0753,0.23441 0.21408,0.576166 0.30847,0.75946 l 0.17155,0.333369 0.80769,-0.06262 c 1.07507,-0.08322 2.65257,-0.616485 2.65257,-0.896742 0,-0.193061 -0.66755,-0.537305 -1.15875,-0.597494 l -0.5302,-0.06484 -0.27409,-0.822082 c -0.15077,-0.452144 -0.57515,-1.770042 -0.94285,-2.928663 -0.54293,-1.710841 -1.09945,-3.238548 -1.56318,-4.290235 -0.0339,-0.07685 0.0197,-0.129129 0.13334,-0.130054 0.10455,-8.17e-4 0.25727,-0.04434 0.33947,-0.09654 0.12924,-0.08206 0.12639,-0.120653 -0.0216,-0.284796 -0.44879,-0.497861 -0.68179,-1.513702 -0.83727,-3.650393 -0.0571,-0.785562 -0.064,-0.780683 0.71872,-0.538086 0.27636,0.08565 0.85981,0.185183 1.29651,0.220974 0.66442,0.05446 0.82542,0.0365 0.98621,-0.109583 0.35141,-0.319261 0.45697,-0.993509 0.38646,-2.469658 l -0.0653,-1.364982 1.14518,-0.05459 c 1.04436,-0.04969 1.1623,-0.07569 1.33987,-0.295838 0.14664,-0.181865 0.18239,-0.349215 0.14534,-0.679179 l -0.049,-0.437936 h 0.48622 c 0.87585,0 1.74575,0.383077 2.0716,0.912399 l 0.22171,0.36006 0.14476,-0.353637 c 0.1873,-0.45741 0.11248,-1.940837 -0.12676,-2.511602 l -0.17233,-0.41104 -0.35967,0.434723 c -0.2848,0.344204 -0.49118,0.475145 -0.99242,0.629606 -0.75354,0.232218 -1.73702,0.391984 -2.96525,0.481688 -0.74922,0.05472 -0.94341,0.03668 -1.16455,-0.108781 -0.62727,-0.412607 -0.95483,-0.392167 -1.77512,0.111389 -0.26363,0.161832 -0.58288,0.233205 -1.20473,0.269344 -0.67674,0.03933 -0.87583,0.08853 -0.99442,0.245861 -0.50851,0.674614 0.44448,1.451735 1.26071,1.028002 0.17294,-0.08977 0.54931,-0.163172 0.83648,-0.163172 0.49901,0 0.52879,0.01565 0.67054,0.356249 0.0815,0.195999 0.14835,0.522281 0.14835,0.725141 0,0.392769 -0.18883,1.283527 -0.29849,1.408336 -0.0505,0.05744 -1.04134,-0.179916 -1.21914,-0.292024 -0.0183,-0.01152 0.27005,-0.405875 0.64056,-0.876269 0.37052,-0.470395 0.65817,-0.901698 0.63936,-0.958361 -0.0189,-0.05666 -0.23165,-0.142146 -0.47303,-0.190066 -0.40285,-0.07998 -0.46932,-0.0612 -0.81087,0.229806 -0.20464,0.174349 -0.52019,0.436779 -0.70114,0.583044 l -0.32888,0.265932 -0.7677,-0.391372 c -0.87372,-0.445516 -1.29034,-0.750148 -1.12237,-0.820475 0.42375,-0.177414 0.48818,-0.321059 0.50421,-1.125145 0.009,-0.476392 -0.0364,-0.903924 -0.11296,-1.052085 -0.10495,-0.203095 -0.10261,-0.324948 0.0128,-0.65329 l 0.14174,-0.403412 -0.47562,-0.302863 c -0.26158,-0.166549 -0.6367,-0.333201 -0.83367,-0.370297 -0.0502,-0.0094 -0.10679,-0.01496 -0.16834,-0.01687 z m 2.07739,2.870055 c -0.0465,5.06e-4 -0.0817,0.05808 -0.0817,0.140493 0,0.0942 0.0403,0.14416 0.0896,0.111191 0.12685,-0.0849 0.1332,-0.207979 0.0128,-0.24827 -0.007,-0.0023 -0.014,-0.0035 -0.0206,-0.0034 z m 5.70381,0.191873 c 0.73956,0 0.91124,0.03241 1.09977,0.208733 0.33719,0.315363 0.13473,0.546283 -0.54998,0.626996 -1.17673,0.13871 -2.03404,0.175597 -2.08679,0.08992 -0.0742,-0.120491 0.12533,-0.235734 0.2617,-0.151131 0.18869,0.117073 0.52353,-0.276859 0.45802,-0.538888 -0.058,-0.232016 -0.0453,-0.235626 0.81728,-0.235625 z m -4.09621,0.08811 c 0.32407,0.0039 0.60743,0.02535 0.62955,0.04758 0.12707,0.127567 -0.13411,0.353327 -0.5322,0.460215 -0.64219,0.172431 -0.8657,0.157982 -0.86387,-0.05639 0.003,-0.36525 0.16149,-0.458637 0.76652,-0.451381 z" />
    <path
       style="fill:#000000;stroke-width:0.227451"
       d="m 163.37053,86.14747 c -1.12506,-0.234321 -2.7979,-1.43843 -3.35628,-2.415866 -0.62127,-1.087551 -0.54621,-3.115314 0.15766,-4.259137 1.34404,-2.184083 4.70464,-3.020257 7.06721,-1.75844 l 0.77106,0.411805 0.64762,-0.611897 c 0.55259,-0.522107 0.61475,-0.70177 0.42356,-1.224388 -0.16677,-0.455886 -0.40272,-0.631222 -0.92281,-0.685742 -0.96065,-0.100705 -1.38306,-0.437093 -1.03103,-0.821073 0.19222,-0.209663 0.19488,-0.29589 0.009,-0.29589 -0.37192,0 -0.99166,-1.166755 -0.99166,-1.866967 0,-0.324526 0.42586,-1.386494 0.94637,-2.35993 0.8667,-1.62084 1.07807,-1.847543 2.51017,-2.692147 1.5184,-0.895503 1.56379,-0.948818 1.56379,-1.837121 0,-1.088411 0.53435,-1.631137 1.60602,-1.631137 0.4024,0 0.97226,0.17637 1.26634,0.391933 0.52964,0.388221 0.53095,0.403587 0.13933,1.623016 -0.34321,1.068666 -0.47333,1.231082 -0.98634,1.231082 -0.59027,0 -0.77834,0.379397 -0.3808,0.768228 0.11561,0.11307 0.33851,0.569123 0.49534,1.013451 0.1583,0.448434 0.60185,1.011994 0.99697,1.266666 1.40618,0.906387 4.14776,2.163785 4.23011,1.940117 0.14631,-0.397323 1.20938,-0.249773 1.47835,0.20519 0.1856,0.313908 0.1776,0.565236 -0.029,0.914882 -0.26209,0.443284 -0.29734,0.450304 -0.43804,0.08722 -0.13898,-0.358676 -0.18203,-0.36319 -0.46984,-0.04929 -0.17426,0.190074 -0.46505,0.345585 -0.64617,0.345585 -0.82748,0 0.20356,2.683722 1.15495,3.006266 0.46914,0.159056 0.56943,0.104181 0.69878,-0.382372 l 0.15101,-0.568075 0.0283,0.570535 c 0.0248,0.49931 0.15514,0.587922 1.04431,0.709809 3.17397,0.435075 5.09682,3.10004 4.26192,5.906759 -1.06446,3.578433 -6.74913,4.355211 -9.15646,1.25119 -1.43628,-1.851941 -1.11896,-4.259741 0.78902,-5.986858 1.01442,-0.918257 1.14398,-1.129112 0.92327,-1.502446 -0.14123,-0.238855 -0.34163,-0.404019 -0.44538,-0.367031 -0.10373,0.03699 -1.35391,1.170858 -2.77816,2.519714 -2.35594,2.231217 -2.56243,2.491793 -2.28882,2.888402 0.16542,0.239764 0.26641,0.457031 0.22444,0.482812 -0.042,0.02577 -0.57152,0.405823 -1.17673,0.844535 -0.60524,0.438712 -1.19692,0.796167 -1.31486,0.794345 -0.11795,-0.0017 -0.0588,-0.09244 0.13138,-0.201367 0.28531,-0.16339 0.24416,-0.272566 -0.23504,-0.623825 l -0.58087,-0.425777 -0.31603,0.681244 c -0.93871,2.023448 -3.68458,3.230009 -6.1719,2.711973 z m 3.3535,-1.330988 c 0.51571,-0.265839 0.96849,-0.580725 1.00615,-0.699747 0.0377,-0.119021 -0.5088,-0.571117 -1.21437,-1.004657 -0.92769,-0.570023 -1.35518,-0.7228 -1.54406,-0.551826 -0.18888,0.170972 -0.341,0.164175 -0.54949,-0.02456 -0.22505,-0.203713 -0.52666,-0.05887 -1.37441,0.660027 l -1.08609,0.921009 0.9441,-0.919055 c 1.24447,-1.211469 1.22357,-1.738814 -0.11974,-3.02297 l -1.06383,-1.016975 1.14152,0.920018 c 0.70919,0.571594 1.25241,0.857026 1.43437,0.753686 0.16107,-0.09148 0.49035,-0.136886 0.73171,-0.100888 0.47909,0.07144 1.14824,-0.398463 1.86675,-1.31093 l 0.46102,-0.585476 -0.77239,-0.361559 c -0.92726,-0.434055 -2.8165,-0.437439 -3.73116,-0.0067 -2.04273,0.962021 -2.86024,3.123308 -1.85016,4.891436 1.01352,1.774148 3.75321,2.47302 5.72008,1.459146 z m 15.89967,0.173635 c 1.34174,-0.628073 2.31482,-2.110525 2.24232,-3.416107 -0.0449,-0.80805 -0.0911,-0.942286 -0.56992,-1.653186 l -0.49399,-0.733478 -1.05903,0.940837 c -1.22216,1.085761 -1.32724,1.4867 -0.40161,1.532354 l 0.65743,0.03241 -0.65743,0.09015 c -0.36158,0.04958 -0.65743,0.153031 -0.65743,0.229887 0,0.07685 0.45721,0.575101 1.01603,1.107213 l 1.01602,0.967475 -1.16475,-0.901626 c -0.6406,-0.495893 -1.25917,-0.848786 -1.37462,-0.784211 -0.11542,0.06457 -0.22975,0.720299 -0.25408,1.457156 l -0.0442,1.339741 -0.0819,-1.190212 c -0.12984,-1.887911 -0.18836,-1.922149 -1.45158,-0.84908 -1.06502,0.904706 -1.07822,0.909735 -0.24039,0.09158 1.18975,-1.161786 1.12632,-1.774078 -0.28928,-2.792441 -0.5917,-0.425643 -1.14422,-0.77484 -1.22786,-0.775995 -0.0837,-0.0011 -0.32623,0.330159 -0.53911,0.736255 -0.60847,1.160706 -0.1672,2.91735 0.96605,3.845715 1.26131,1.03327 3.27484,1.350221 4.60931,0.725553 z m -13.97808,-2.04697 0.3457,-0.605137 -1.58739,-0.13418 c -0.87306,-0.0738 -1.63085,-0.09483 -1.68398,-0.04673 -0.1577,0.142735 2.18942,1.60968 2.39312,1.495717 0.10276,-0.05748 0.3424,-0.37684 0.53255,-0.709666 z m 0.36809,-1.805805 c 0,-0.150904 -0.28042,-0.647904 -0.62312,-1.104448 l -0.62312,-0.83008 -1.05033,0.933103 c -0.57766,0.513205 -1.05032,1.010209 -1.05032,1.104447 0,0.09424 0.75305,0.171345 1.67344,0.171345 1.19195,0 1.67345,-0.07894 1.67345,-0.274367 z m 1.59619,-0.932534 0.0423,-0.632518 -0.17393,0.649207 -0.17393,0.649206 -0.18253,-0.865607 c -0.26686,-1.26555 -0.68428,-2.488625 -0.84935,-2.488625 -0.079,0 -0.28458,0.204182 -0.45675,0.453737 -0.27217,0.394511 -0.23733,0.557291 0.26702,1.247151 0.31902,0.43638 0.65828,1.016605 0.75393,1.289394 0.23497,0.670142 0.72097,0.480367 0.77327,-0.301945 z m 9.02308,-0.513772 c -0.23869,-0.600905 -0.55746,-1.092555 -0.70834,-1.092555 -0.28819,0 -1.21356,0.82378 -1.04421,0.929586 0.0539,0.03373 0.51286,0.379968 1.01973,0.769422 0.50687,0.389454 0.97678,0.65815 1.04421,0.597098 0.0675,-0.06105 -0.0727,-0.602647 -0.31139,-1.203551 z m 3.01643,0.305666 c 1.20224,-1.108887 1.17219,-1.173766 -0.79397,-1.714105 -1.19708,-0.328981 -1.84482,-0.258062 -1.84482,0.201978 0,0.52669 1.02308,2.49433 1.29693,2.49433 0.15233,0 0.75616,-0.441991 1.34186,-0.982203 z m -5.3039,-4.037734 c 0.0464,-0.10923 -0.48898,-0.168219 -1.19532,-0.131687 l -1.27943,0.06618 -0.95627,1.65349 c -0.52593,0.909419 -1.10275,1.808953 -1.28182,1.998963 -0.17906,0.190012 -0.25732,0.506444 -0.17394,0.703181 0.11725,0.276566 0.67916,-0.146995 2.47714,-1.867275 1.27903,-1.223742 2.36337,-2.314023 2.40964,-2.422845 z m -6.73517,-0.0176 c -0.7143,-0.250782 -0.82125,-0.124463 -0.58359,0.689222 l 0.21532,0.737138 0.42408,-0.628936 c 0.4119,-0.610885 0.41029,-0.633779 -0.0558,-0.797424 z m 6.47175,-0.941721 c 0.6665,-0.161688 0.69655,-0.637121 0.0597,-0.945616 -0.73962,-0.35831 -0.59951,-0.86561 0.23906,-0.86561 0.39446,0 0.71719,-0.09738 0.71719,-0.216403 0,-0.119019 -0.26333,-0.2164 -0.58516,-0.2164 -0.76053,0 -4.59294,-1.255748 -5.02441,-1.646321 -0.18308,-0.165714 -0.42789,-0.301298 -0.54403,-0.301298 -0.19151,0 -1.25737,1.159908 -1.25737,1.368299 0,0.04807 0.67238,0.358026 1.49416,0.688782 1.97795,0.796098 2.80898,1.344273 2.80898,1.852894 0,0.328004 0.16739,0.417431 0.77697,0.415112 0.42731,-0.0017 1.019,-0.06168 1.31484,-0.133439 z"
       id="path7" />
  </g>
</svg>
