<?xml version="1.0" encoding="UTF-8" standalone="no"?>
<!-- Created with Inkscape (http://www.inkscape.org/) -->

<svg
   width="178.47701mm"
   height="178.47701mm"
   viewBox="0 0 178.47664 178.47664"
   version="1.1"
   id="svg1"
   inkscape:version="1.4.3 (0d15f75, 2025-12-25)"
   sodipodi:docname="social-card-square.svg"
   inkscape:export-filename="logo.png"
   inkscape:export-xdpi="96"
   inkscape:export-ydpi="96"
   xmlns:inkscape="http://www.inkscape.org/namespaces/inkscape"
   xmlns:sodipodi="http://sodipodi.sourceforge.net/DTD/sodipodi-0.dtd"
   xmlns="http://www.w3.org/2000/svg"
   xmlns:svg="http://www.w3.org/2000/svg">
  <sodipodi:namedview
     id="namedview1"
     pagecolor="#090909"
     bordercolor="#000000"
     borderopacity="0.25"
     inkscape:showpageshadow="2"
     inkscape:pageopacity="0.0"
     inkscape:pagecheckerboard="0"
     inkscape:deskcolor="#d1d1d1"
     inkscape:document-units="mm"
     inkscape:zoom="1.1190704"
     inkscape:cx="314.54678"
     inkscape:cy="373.5243"
     inkscape:window-width="1728"
     inkscape:window-height="1051"
     inkscape:window-x="168"
     inkscape:window-y="203"
     inkscape:window-maximized="0"
     inkscape:current-layer="layer1"
     showborder="false"
     inkscape:export-bgcolor="#1d1e20ff" />
  <defs
     id="defs1">
    <rect
       x="69.091232"
       y="248.10036"
       width="717.59192"
       height="232.91519"
       id="rect1" />
    <rect
       x="69.091232"
       y="248.10036"
       width="717.59192"
       height="232.91519"
       id="rect1-0" />
  </defs>
  <g
     inkscape:label="Layer 1"
     inkscape:groupmode="layer"
     id="layer1"
     transform="translate(-17.987016,-54.469223)">
    <g
       id="g1"
       transform="translate(1.7294826,0.87743773)">
      <text
         xml:space="preserve"
         transform="matrix(0.19143058,0,0,0.19143058,27.916255,76.683419)"
         id="text1"
         style="font-size:85.3333px;writing-mode:lr-tb;direction:ltr;white-space:pre;shape-inside:url(#rect1-0);display:inline;fill:#dadadb;fill-opacity:1"><tspan
           x="69.091797"
           y="325.95176"
           id="tspan6"><tspan
             style="font-weight:bold;font-family:'Libre Baskerville';-inkscape-font-specification:'Libre Baskerville Bold'"
             id="tspan1">ALEX
</tspan></tspan><tspan
           x="69.091797"
           y="433.05122"
           id="tspan8"><tspan
             style="font-weight:bold;font-family:'Libre Baskerville';-inkscape-font-specification:'Libre Baskerville Bold'"
             id="tspan7">MARQUARDT</tspan></tspan></text>
      <path
         style="fill:#dadadb;fill-opacity:1;stroke-width:0.173177"
         d="m 114.01751,139.17505 c -0.88035,-0.0806 -1.18492,-0.27776 -1.20063,-0.77706 -0.0123,-0.38917 -0.0166,-0.39047 -0.19151,-0.0572 -0.26184,0.49892 -0.86055,0.41703 -1.47705,-0.20202 -0.4797,-0.48168 -0.53016,-0.64005 -0.44677,-1.4019 0.0519,-0.47239 0.15209,-0.96118 0.22307,-1.08622 0.10833,-0.19077 -0.0624,-0.21907 -1.06082,-0.17598 l -1.1899,0.0514 v 1.26055 1.26056 l 0.99262,0.10455 c 0.66283,0.0698 1.0573,0.19712 1.1873,0.38316 0.28021,0.40101 0.24952,0.45007 -0.28152,0.45007 -0.37875,0 -0.455,-0.062 -0.37268,-0.30311 0.0894,-0.26186 0.007,-0.30312 -0.61218,-0.30312 -0.58375,0 -0.71565,0.0558 -0.71565,0.30312 0,0.2244 -0.13194,0.30311 -0.50805,0.30311 -0.41798,0 -0.48578,-0.0538 -0.38243,-0.30311 0.11306,-0.27291 0.0356,-0.30312 -0.77818,-0.30312 -0.7719,0 -0.90383,0.0442 -0.90383,0.30312 0,0.20208 -0.13191,0.30311 -0.39576,0.30311 -0.44176,0 -0.5289,-0.33513 -0.14841,-0.5707 0.13604,-0.0842 0.71485,-0.20128 1.28624,-0.26012 l 1.03888,-0.10697 v -1.27402 -1.27401 h -1.46998 c -0.98968,0 -1.55968,-0.0687 -1.74449,-0.21023 -0.24233,-0.18561 -0.55004,-1.70751 -1.32994,-6.57769 -0.13398,-0.83669 0.13498,-1.29837 0.5275,-0.90548 0.19383,0.194 1.25267,5.45729 1.24871,6.20706 l -0.002,0.40812 2.49293,0.0465 c 1.37111,0.0256 2.53397,-0.004 2.58416,-0.0671 0.0501,-0.0625 -0.69321,-0.11391 -1.65193,-0.11422 -2.02166,-6.3e-4 -2.90979,-0.28944 -3.11062,-1.01143 -0.0655,-0.23529 -0.0388,-1.3891 0.0592,-2.56402 0.18806,-2.25538 0.38927,-2.78383 1.36362,-3.5816 0.46747,-0.38275 0.48776,-0.45689 0.27424,-1.00271 -0.36888,-0.94298 -0.2957,-1.18067 0.47594,-1.54593 1.38727,-0.65667 2.36581,-0.30938 2.50343,0.88847 0.10229,0.89001 -0.16546,1.54303 -0.6326,1.54303 -0.67725,0 -0.8593,0.37423 -0.60665,1.24713 0.36172,1.24977 0.78873,2.05073 1.15567,2.16771 0.18512,0.059 1.09349,0.12832 2.01858,0.15399 0.92509,0.0257 1.78694,0.0516 1.91522,0.0576 0.31971,0.015 0.88086,0.46266 0.763,0.60872 -0.12235,0.15162 1.68885,0.32007 2.24462,0.20876 0.30555,-0.0612 0.41997,-0.20318 0.41997,-0.52111 0,-0.43305 -0.25731,-0.57964 -0.4967,-0.28297 -0.27101,0.33585 -0.49252,-0.064 -0.48908,-0.88287 0.004,-0.90846 0.47517,-3.71542 0.69889,-4.16193 0.0723,-0.1442 0.29992,-0.26218 0.50595,-0.26218 0.35283,0 0.37458,0.14958 0.37458,2.57648 0,1.61661 -0.0737,2.57647 -0.19789,2.57647 -0.10888,0 -0.19786,0.2046 -0.19786,0.45467 0,0.42828 0.0452,0.45467 0.77986,0.45467 0.82494,0 1.23601,0.24763 0.77906,0.4693 -0.14996,0.0728 -0.47305,0.13334 -0.71792,0.13461 l -0.44525,0.002 v 3.34845 c 0,3.22099 0.0151,3.35147 0.39576,3.42772 0.73973,0.14816 0.39952,0.34703 -0.59365,0.34703 -0.54416,0 -0.9894,-0.0682 -0.9894,-0.15156 0,-0.0834 0.13357,-0.15156 0.29683,-0.15156 0.25504,0 0.29682,-0.47993 0.29682,-3.41004 v -3.41004 h -2.27566 c -2.11766,0 -2.27564,-0.0203 -2.27564,-0.29304 0,-0.20377 0.16578,-0.31175 0.54416,-0.35444 0.29932,-0.0338 -0.59302,-0.0553 -1.98295,-0.048 -2.13311,0.0113 -2.51841,0.0489 -2.47115,0.24076 0.0353,0.14373 0.68939,0.36668 1.77833,0.60623 0.9473,0.20839 1.81472,0.45072 1.92762,0.53851 0.26768,0.20817 1.99153,5.08992 1.85643,5.25731 -0.1814,0.2248 0.31825,0.53468 1.02604,0.63638 0.64045,0.092 0.87929,0.28537 0.53711,0.43481 -0.28673,0.12522 -1.54077,0.20594 -2.22537,0.14323 z"
         id="path4" />
      <path
         style="fill:#dadadb;fill-opacity:1;stroke-width:0.156947"
         d="m 122.85441,138.88716 c -0.30767,-0.16351 -0.72309,-0.37042 -0.92314,-0.45979 -0.57387,-0.25639 -0.56771,-0.51055 0.0374,-1.54275 0.31135,-0.53112 0.56609,-0.98909 0.56609,-1.0177 0,-0.0286 -0.19779,-0.074 -0.43954,-0.10078 l -0.43954,-0.0488 v -1.54113 -1.54113 l 0.64998,-0.046 c 0.5703,-0.0404 0.67297,-0.1073 0.83746,-0.54589 0.10311,-0.27494 0.22065,-1.19048 0.26121,-2.03452 0.0406,-0.84405 0.17858,-2.18195 0.30673,-2.97311 0.22783,-1.40657 0.24982,-1.45401 0.99136,-2.1391 l 0.75835,-0.70063 -0.36564,-0.26593 c -0.34732,-0.25261 -0.35593,-0.30499 -0.1718,-1.04506 0.15405,-0.61914 0.28468,-0.8154 0.63624,-0.95581 0.50569,-0.20196 1.18396,-0.0833 1.47822,0.25854 0.11036,0.12821 0.20065,0.61738 0.20065,1.08706 0,0.71054 -0.0595,0.892 -0.35392,1.08053 -0.45936,0.29408 -0.44874,0.38586 0.14015,1.21114 0.36143,0.50652 0.53892,0.98978 0.66114,1.80007 0.19602,1.2997 0.69786,2.34474 1.49515,3.11349 0.46605,0.44936 0.53673,0.59366 0.38004,0.77572 -0.26912,0.31265 -0.75297,0.27897 -0.86461,-0.0602 -0.0514,-0.15612 -0.28216,-0.45086 -0.51282,-0.65498 l -0.41938,-0.37114 0.10838,0.43488 c 0.0596,0.23918 0.21384,1.14074 0.34272,2.00347 0.14832,0.99275 0.47781,2.20508 0.89755,3.30237 l 0.6632,1.73377 h 0.77479 c 0.42613,0 0.77479,0.0704 0.77479,0.15638 0,0.24705 -0.9951,0.76709 -1.46903,0.76773 -0.23656,3e-4 -0.47457,0.0699 -0.5289,0.15469 -0.16216,0.25299 -0.72197,0.1746 -0.8255,-0.11559 -0.0529,-0.14833 -0.40378,-0.96321 -0.77967,-1.81083 -0.37591,-0.84762 -0.82245,-1.9393 -0.99234,-2.42596 -0.16988,-0.48666 -0.35621,-0.83919 -0.41406,-0.78341 -0.0579,0.0558 -0.10518,0.53322 -0.10518,1.06098 0,1.06935 -0.0755,1.14665 -1.11959,1.14665 -0.57381,0 -0.65131,0.0576 -1.18569,0.88134 -0.31446,0.48472 -0.57173,0.99918 -0.57173,1.14324 0,0.40191 0.17403,0.74921 0.37673,0.75182 0.10047,0.001 0.29057,0.0707 0.42244,0.15411 0.21311,0.1349 0.21311,0.16862 0,0.30351 -0.35352,0.22377 -0.65427,0.19053 -1.27868,-0.14129 z m 1.59833,-6.56027 c 0,-0.16696 -0.17758,-0.23117 -0.63933,-0.23117 -0.59993,0 -0.77981,0.12141 -0.53277,0.3596 0.0586,0.0565 0.3463,0.10274 0.63933,0.10274 0.36702,0 0.53277,-0.0719 0.53277,-0.23117 z m 0.41624,-0.18943 c -0.16247,-0.15666 -0.29653,0.0792 -0.16322,0.28717 0.1007,0.15711 0.13834,0.15723 0.19248,6.2e-4 0.037,-0.10707 0.0239,-0.23658 -0.0292,-0.28779 z"
         id="path6" />
      <path
         id="path3"
         style="fill:#dadadb;fill-opacity:1;stroke-width:0.0742039"
         d="m 136.34625,122.57115 c -0.31174,-0.01 -0.80241,0.10964 -1.16051,0.29042 -0.52625,0.26567 -0.53727,0.96673 -0.0298,1.89356 l 0.24807,0.45307 -0.25125,0.2014 c -0.52618,0.42149 -0.7101,1.15489 -0.55227,2.20215 0.31042,2.05978 0.33179,2.98387 0.10719,4.62821 l -0.0481,0.35315 h 0.27599 0.27599 l -0.0253,0.76208 c -0.0252,0.76078 -0.0259,0.76314 -0.39184,1.39403 -0.20163,0.34758 -0.66152,1.20073 -1.02195,1.8959 l -0.65525,1.26393 0.21957,0.18601 c 0.22756,0.19285 0.52879,0.32661 1.5149,0.67291 0.53817,0.189 0.91628,0.21963 1.28939,0.10427 0.16214,-0.0501 0.01,-0.25922 -0.30404,-0.41705 -0.16811,-0.0845 -0.39377,-0.23635 -0.50136,-0.33747 l -0.19556,-0.18384 0.58438,-0.9722 c 0.32143,-0.5347 0.58452,-0.98891 0.58452,-1.00922 0,-0.0203 0.0785,-0.14037 0.17458,-0.26691 0.42871,-0.56474 0.65942,-1.20176 0.75434,-2.08219 0.0525,-0.48771 0.10205,-0.46438 0.30275,0.14216 0.0677,0.20446 0.39951,0.9405 0.73742,1.63567 0.63819,1.31294 1.00963,2.15979 1.17888,2.68744 0.0545,0.1696 0.15489,0.41687 0.22318,0.54949 l 0.12412,0.2412 0.58437,-0.0453 c 0.77784,-0.0602 1.91919,-0.44604 1.91919,-0.6488 0,-0.13969 -0.48299,-0.38876 -0.83838,-0.43231 l -0.38361,-0.0469 -0.19831,-0.59479 c -0.10908,-0.32713 -0.41613,-1.28065 -0.68216,-2.11893 -0.39282,-1.23783 -0.79547,-2.34315 -1.13099,-3.10406 -0.0245,-0.0556 0.0143,-0.0934 0.0965,-0.0941 0.0756,-5.9e-4 0.18614,-0.0321 0.24561,-0.0699 0.0935,-0.0594 0.0914,-0.0873 -0.0156,-0.20605 -0.32471,-0.36021 -0.49329,-1.09519 -0.60578,-2.64113 -0.0413,-0.56836 -0.0463,-0.56483 0.52,-0.38931 0.19996,0.062 0.62209,0.13398 0.93805,0.15988 0.48072,0.0394 0.5972,0.0264 0.71354,-0.0793 0.25425,-0.23099 0.33062,-0.71882 0.27961,-1.78684 l -0.0472,-0.98758 0.82856,-0.0395 c 0.75561,-0.0359 0.84095,-0.0548 0.96942,-0.21405 0.1061,-0.13158 0.13196,-0.25266 0.10516,-0.49139 l -0.0354,-0.31686 h 0.35178 c 0.63369,0 1.26308,0.27717 1.49884,0.66014 l 0.16041,0.26051 0.10474,-0.25586 c 0.13551,-0.33095 0.0814,-1.40423 -0.0917,-1.81719 l -0.12468,-0.2974 -0.26023,0.31453 c -0.20606,0.24904 -0.35538,0.34378 -0.71803,0.45553 -0.5452,0.16802 -1.25676,0.28361 -2.14541,0.34851 -0.54207,0.0396 -0.68257,0.0265 -0.84257,-0.0787 -0.45384,-0.29853 -0.69084,-0.28374 -1.28433,0.0806 -0.19074,0.11709 -0.42172,0.16873 -0.87164,0.19488 -0.48964,0.0284 -0.63368,0.064 -0.71948,0.17788 -0.36792,0.4881 0.32159,1.05036 0.91214,0.74378 0.12513,-0.0649 0.39744,-0.11806 0.60521,-0.11806 0.36105,0 0.38259,0.0113 0.48515,0.25775 0.059,0.14181 0.10733,0.37788 0.10733,0.52465 0,0.28418 -0.13662,0.92866 -0.21596,1.01896 -0.0365,0.0416 -0.75343,-0.13017 -0.88207,-0.21128 -0.0132,-0.008 0.19539,-0.29366 0.46346,-0.634 0.26808,-0.34034 0.4762,-0.65239 0.46259,-0.69339 -0.0137,-0.041 -0.16761,-0.10285 -0.34225,-0.13752 -0.29147,-0.0579 -0.33956,-0.0443 -0.58668,0.16627 -0.14806,0.12615 -0.37637,0.31602 -0.50729,0.42184 l -0.23795,0.19241 -0.55544,-0.28316 c -0.63216,-0.32234 -0.93359,-0.54275 -0.81206,-0.59363 0.30659,-0.12836 0.35321,-0.23229 0.36481,-0.81406 0.007,-0.34468 -0.0263,-0.65401 -0.0817,-0.7612 -0.0759,-0.14695 -0.0742,-0.23511 0.009,-0.47267 l 0.10255,-0.29188 -0.34412,-0.21912 c -0.18926,-0.1205 -0.46066,-0.24108 -0.60317,-0.26792 -0.0363,-0.007 -0.0773,-0.0108 -0.12179,-0.0122 z m 1.50302,2.07653 c -0.0336,3.6e-4 -0.0591,0.042 -0.0591,0.10165 0,0.0681 0.0292,0.1043 0.0648,0.0804 0.0918,-0.0614 0.0964,-0.15047 0.009,-0.17962 -0.005,-0.002 -0.0101,-0.003 -0.0149,-0.002 z m 4.12681,0.13882 c 0.53508,0 0.6593,0.0235 0.7957,0.15102 0.24396,0.22817 0.0975,0.39525 -0.39792,0.45364 -0.85139,0.10036 -1.47167,0.12705 -1.50983,0.0651 -0.0537,-0.0872 0.0907,-0.17055 0.18934,-0.10934 0.13652,0.0847 0.37879,-0.20032 0.33139,-0.3899 -0.042,-0.16787 -0.0328,-0.17048 0.59132,-0.17048 z m -2.96368,0.0637 c 0.23447,0.003 0.43949,0.0183 0.45549,0.0344 0.0919,0.0923 -0.097,0.25564 -0.38506,0.33298 -0.46463,0.12475 -0.62635,0.1143 -0.62502,-0.0408 0.002,-0.26427 0.11684,-0.33183 0.55459,-0.32658 z" />
      <path
         style="fill:#dadadb;fill-opacity:1;stroke-width:0.164565"
         d="m 146.11764,139.01259 c -0.814,-0.16954 -2.02433,-1.04073 -2.42832,-1.74792 -0.4495,-0.78687 -0.39519,-2.25399 0.11406,-3.08156 0.97244,-1.58022 3.4039,-2.18521 5.11325,-1.27226 l 0.55788,0.29795 0.46856,-0.44272 c 0.39981,-0.37776 0.44479,-0.50774 0.30646,-0.88587 -0.12066,-0.32984 -0.29138,-0.4567 -0.66767,-0.49614 -0.69505,-0.0729 -1.00067,-0.31625 -0.74597,-0.59406 0.13907,-0.1517 0.141,-0.21408 0.007,-0.21408 -0.26909,0 -0.71749,-0.84417 -0.71749,-1.35079 0,-0.2348 0.30812,-1.00315 0.68472,-1.70745 0.62707,-1.1727 0.78001,-1.33673 1.81616,-1.94781 1.09858,-0.64791 1.13142,-0.68649 1.13142,-1.32919 0,-0.78748 0.38661,-1.18016 1.16199,-1.18016 0.29114,0 0.70344,0.12761 0.91622,0.28357 0.3832,0.28089 0.38415,0.29201 0.1008,1.17428 -0.24831,0.7732 -0.34246,0.89071 -0.71363,0.89071 -0.42707,0 -0.56314,0.2745 -0.27552,0.55583 0.0836,0.0818 0.24492,0.41177 0.35839,0.73325 0.11453,0.32445 0.43545,0.73219 0.72133,0.91645 1.01739,0.65579 3.00097,1.56554 3.06055,1.40371 0.10586,-0.28747 0.875,-0.18071 1.06961,0.14846 0.13428,0.22712 0.1285,0.40896 -0.021,0.66193 -0.18963,0.32073 -0.21513,0.3258 -0.31693,0.0631 -0.10055,-0.25951 -0.1317,-0.26278 -0.33993,-0.0357 -0.12608,0.13752 -0.33648,0.25003 -0.46752,0.25003 -0.5987,0 0.14728,1.94172 0.83562,2.17509 0.33943,0.11508 0.41199,0.0754 0.50558,-0.27666 l 0.10926,-0.41101 0.0205,0.41279 c 0.0179,0.36126 0.11224,0.42538 0.75557,0.51356 2.29642,0.31479 3.68764,2.24294 3.08357,4.27364 -0.77015,2.58906 -4.8831,3.15107 -6.62485,0.90526 -1.03918,-1.33991 -0.80959,-3.08199 0.57087,-4.33159 0.73395,-0.66438 0.82769,-0.81693 0.668,-1.08705 -0.10218,-0.17281 -0.24717,-0.29231 -0.32224,-0.26555 -0.0751,0.0268 -0.97958,0.84713 -2.01005,1.82305 -1.70456,1.61433 -1.85396,1.80286 -1.65599,2.08982 0.11968,0.17347 0.19275,0.33067 0.16238,0.34932 -0.0304,0.0187 -0.4135,0.29362 -0.85138,0.61103 -0.43791,0.31742 -0.866,0.57604 -0.95133,0.57472 -0.0853,-0.001 -0.0425,-0.0669 0.0951,-0.14569 0.20642,-0.11821 0.17665,-0.19721 -0.17006,-0.45135 l -0.42027,-0.30805 -0.22865,0.49289 c -0.67917,1.464 -2.66586,2.33696 -4.46547,1.96216 z m 2.42632,-0.96299 c 0.37312,-0.19234 0.70072,-0.42017 0.72796,-0.50628 0.0273,-0.0861 -0.36812,-0.41321 -0.87862,-0.72689 -0.6712,-0.41242 -0.98049,-0.52296 -1.11715,-0.39926 -0.13665,0.1237 -0.24671,0.11879 -0.39756,-0.0178 -0.16283,-0.14738 -0.38105,-0.0426 -0.99441,0.47755 l -0.78581,0.66637 0.68308,-0.66496 c 0.90039,-0.87651 0.88527,-1.25806 -0.0866,-2.18717 l -0.7697,-0.7358 0.82591,0.66565 c 0.51311,0.41356 0.90614,0.62008 1.03779,0.54531 0.11654,-0.0662 0.35478,-0.099 0.5294,-0.073 0.34663,0.0517 0.83078,-0.28829 1.35063,-0.94848 l 0.33356,-0.4236 -0.55884,-0.2616 c -0.67089,-0.31404 -2.03778,-0.31649 -2.69956,-0.005 -1.47795,0.69604 -2.06943,2.25976 -1.33862,3.53903 0.7333,1.28363 2.71552,1.78928 4.13858,1.05572 z m 11.50368,0.12562 c 0.97078,-0.45442 1.67481,-1.527 1.62235,-2.47161 -0.0325,-0.58464 -0.0659,-0.68176 -0.41234,-1.19611 l -0.35741,-0.53068 -0.76622,0.68071 c -0.88426,0.78557 -0.96029,1.07566 -0.29058,1.10869 l 0.47567,0.0234 -0.47567,0.0652 c -0.26161,0.0359 -0.47566,0.11072 -0.47566,0.16633 0,0.0556 0.3308,0.41609 0.73512,0.80108 l 0.73511,0.69999 -0.84272,-0.65234 c -0.46349,-0.35879 -0.91104,-0.61412 -0.99457,-0.56739 -0.0835,0.0467 -0.16622,0.52114 -0.18383,1.05427 l -0.032,0.96933 -0.0593,-0.86114 c -0.0939,-1.36594 -0.13628,-1.39071 -1.05024,-0.61432 -0.77056,0.65456 -0.78011,0.6582 -0.17393,0.0663 0.8608,-0.84057 0.81491,-1.28357 -0.2093,-2.02038 -0.4281,-0.30796 -0.82786,-0.56061 -0.88838,-0.56145 -0.0606,-7.2e-4 -0.23603,0.23888 -0.39005,0.53269 -0.44024,0.8398 -0.12098,2.11076 0.69895,2.78245 0.91258,0.74759 2.3694,0.97691 3.33492,0.52495 z m -10.11338,-1.48101 0.25012,-0.43783 -1.1485,-0.0971 c -0.63168,-0.0534 -1.17995,-0.0686 -1.2184,-0.0338 -0.11409,0.10327 1.58409,1.16463 1.73147,1.08218 0.0744,-0.0416 0.24773,-0.27265 0.38531,-0.51346 z m 0.26632,-1.30653 c 0,-0.10919 -0.20289,-0.46878 -0.45084,-0.79909 l -0.45084,-0.60058 -0.75993,0.67512 c -0.41795,0.37131 -0.75993,0.7309 -0.75993,0.79909 0,0.0682 0.54485,0.12396 1.21077,0.12396 0.8624,0 1.21077,-0.0571 1.21077,-0.1985 z m 1.15487,-0.67471 0.0306,-0.45763 -0.12584,0.4697 -0.12584,0.46972 -0.13206,-0.62629 c -0.19308,-0.91564 -0.49509,-1.80056 -0.61452,-1.80056 -0.0572,0 -0.2059,0.14773 -0.33047,0.32829 -0.19692,0.28544 -0.17171,0.40321 0.1932,0.90234 0.23082,0.31573 0.47628,0.73553 0.54547,0.9329 0.17001,0.48485 0.52164,0.34754 0.55948,-0.21847 z m 6.52835,-0.37172 c -0.17269,-0.43477 -0.40333,-0.79048 -0.51249,-0.79048 -0.20851,0 -0.87803,0.59602 -0.75551,0.67256 0.039,0.0244 0.37107,0.27492 0.7378,0.55669 0.36673,0.28179 0.70671,0.47619 0.7555,0.43202 0.0488,-0.0442 -0.0526,-0.43602 -0.2253,-0.87079 z m 2.18244,0.22115 c 0.86985,-0.8023 0.8481,-0.84924 -0.57445,-1.24018 -0.86611,-0.23803 -1.33476,-0.18671 -1.33476,0.14613 0,0.38107 0.74022,1.80469 0.93835,1.80469 0.11022,0 0.5471,-0.31978 0.97086,-0.71064 z m -3.83746,-2.92137 c 0.0336,-0.079 -0.35379,-0.12171 -0.86484,-0.0953 l -0.92569,0.0479 -0.69187,1.19633 c -0.38052,0.65798 -0.79786,1.3088 -0.92742,1.44628 -0.12955,0.13748 -0.18618,0.36642 -0.12585,0.50876 0.0848,0.20011 0.49139,-0.10635 1.79225,-1.351 0.9254,-0.8854 1.70994,-1.67424 1.74342,-1.75297 z m -4.87301,-0.0127 c -0.51681,-0.18145 -0.59419,-0.0901 -0.42224,0.49866 l 0.15579,0.53334 0.30683,-0.45505 c 0.29801,-0.44199 0.29685,-0.45855 -0.0404,-0.57695 z m 4.68242,-0.68135 c 0.48223,-0.11699 0.50397,-0.46097 0.0432,-0.68417 -0.53512,-0.25924 -0.43375,-0.62629 0.17297,-0.62629 0.2854,0 0.5189,-0.0704 0.5189,-0.15657 0,-0.0861 -0.19053,-0.15657 -0.42338,-0.15657 -0.55025,0 -3.32307,-0.90855 -3.63524,-1.19114 -0.13246,-0.11989 -0.30959,-0.21799 -0.39362,-0.21799 -0.13856,0 -0.90973,0.83921 -0.90973,0.98999 0,0.0348 0.48648,0.25903 1.08105,0.49834 1.43109,0.57599 2.03235,0.97261 2.03235,1.3406 0,0.23732 0.12111,0.30202 0.56215,0.30034 0.30917,-0.001 0.73726,-0.0446 0.95131,-0.0965 z"
         id="path7" />
    </g>
  </g>
</svg>
