<?xml version="1.0" encoding="UTF-8" standalone="no"?>
<!-- Created with Inkscape (http://www.inkscape.org/) -->

<svg
   width="178.47701mm"
   height="178.47701mm"
   viewBox="0 0 178.47664 178.47664"
   version="1.1"
   id="svg1"
   inkscape:version="1.4.3 (0d15f75, 2025-12-25)"
   sodipodi:docname="social-card-square.svg"
   inkscape:export-filename="logo.png"
   inkscape:export-xdpi="96"
   inkscape:export-ydpi="96"
   xmlns:inkscape="http://www.inkscape.org/namespaces/inkscape"
   xmlns:sodipodi="http://sodipodi.sourceforge.net/DTD/sodipodi-0.dtd"
   xmlns="http://www.w3.org/2000/svg"
   xmlns:svg="http://www.w3.org/2000/svg">
  <sodipodi:namedview
     id="namedview1"
     pagecolor="#090909"
     bordercolor="#000000"
     borderopacity="0.25"
     inkscape:showpageshadow="2"
     inkscape:pageopacity="0.0"
     inkscape:pagecheckerboard="0"
     inkscape:deskcolor="#d1d1d1"
     inkscape:document-units="mm"
     inkscape:zoom="1.1190704"
     inkscape:cx="373.52431"
     inkscape:cy="362.80112"
     inkscape:window-width="1728"
     inkscape:window-height="1051"
     inkscape:window-x="0"
     inkscape:window-y="38"
     inkscape:window-maximized="0"
     inkscape:current-layer="layer1"
     showborder="false"
     inkscape:export-bgcolor="#1d1e20ff" />
  <defs
     id="defs1">
    <rect
       x="69.091232"
       y="248.10036"
       width="717.59192"
       height="232.91519"
       id="rect1" />
    <rect
       x="69.091232"
       y="248.10036"
       width="717.59192"
       height="232.91519"
       id="rect1-0" />
    <rect
       x="69.091232"
       y="248.10036"
       width="717.59192"
       height="232.91519"
       id="rect1-04" />
  </defs>
  <g
     inkscape:label="Layer 1"
     inkscape:groupmode="layer"
     id="layer1"
     transform="translate(-17.987016,-54.469223)">
    <g
       id="g1"
       transform="translate(-0.31829041,3.2804124)">
      <text
         xml:space="preserve"
         transform="matrix(0.2298087,0,0,0.2298087,14.410823,58.313075)"
         id="text1"
         style="font-size:85.3333px;writing-mode:lr-tb;direction:ltr;white-space:pre;shape-inside:url(#rect1-04);display:inline;fill:#dadadb;fill-opacity:1"><tspan
           x="69.091797"
           y="325.95176"
           id="tspan3"><tspan
             style="font-weight:bold;font-family:'Libre Baskerville';-inkscape-font-specification:'Libre Baskerville Bold'"
             id="tspan2">ALEX
</tspan></tspan><tspan
           x="69.091797"
           y="433.05122"
           id="tspan5"><tspan
             style="font-weight:bold;font-family:'Libre Baskerville';-inkscape-font-specification:'Libre Baskerville Bold'"
             id="tspan4">MARQUARDT</tspan></tspan></text>
      <path
         style="fill:#dadadb;fill-opacity:1;stroke-width:0.137014"
         d="m 112.10239,133.17237 c -0.69651,-0.0637 -0.93747,-0.21976 -0.94991,-0.61479 -0.009,-0.30791 -0.0134,-0.30893 -0.15152,-0.0453 -0.20715,0.39473 -0.68085,0.32993 -1.16861,-0.15984 -0.37953,-0.38109 -0.41944,-0.5064 -0.35347,-1.10915 0.0412,-0.37373 0.12037,-0.76046 0.17649,-0.85939 0.0857,-0.15093 -0.0492,-0.17332 -0.83929,-0.13922 l -0.94143,0.0407 v 0.99732 0.9973 l 0.78534,0.0828 c 0.52441,0.0553 0.83651,0.15596 0.93936,0.30314 0.22168,0.31727 0.19741,0.35609 -0.22273,0.35609 -0.29965,0 -0.35998,-0.0491 -0.29485,-0.23982 0.0708,-0.20717 0.006,-0.23982 -0.48433,-0.23982 -0.46185,0 -0.56621,0.0441 -0.56621,0.23982 0,0.17755 -0.10444,0.23982 -0.40196,0.23982 -0.3307,0 -0.38433,-0.0425 -0.30258,-0.23982 0.0895,-0.21591 0.0281,-0.23982 -0.61565,-0.23982 -0.61072,0 -0.71509,0.035 -0.71509,0.23982 0,0.15987 -0.10433,0.23982 -0.31313,0.23982 -0.3495,0 -0.41845,-0.26514 -0.11742,-0.45153 0.10764,-0.0667 0.56556,-0.15925 1.01764,-0.20579 l 0.82194,-0.0846 v -1.00797 -1.00796 h -1.16301 c -0.78303,0 -1.23399,-0.0543 -1.3802,-0.16634 -0.19172,-0.14684 -0.43517,-1.35092 -1.05221,-5.20409 -0.10599,-0.66196 0.10687,-1.02723 0.41734,-0.71638 0.15335,0.15349 0.99108,4.31765 0.98796,4.91086 l -0.001,0.32289 1.97233,0.0368 c 1.0848,0.0202 2.00482,-0.004 2.04451,-0.053 0.0396,-0.0494 -0.54843,-0.0902 -1.30695,-0.0904 -1.59947,-5e-4 -2.30215,-0.22902 -2.46104,-0.80022 -0.0518,-0.18617 -0.0306,-1.09902 0.0469,-2.0286 0.1488,-1.78438 0.30799,-2.20248 1.07886,-2.83365 0.36985,-0.30282 0.38589,-0.36149 0.21698,-0.79332 -0.29185,-0.74607 -0.23395,-0.93412 0.37654,-1.2231 1.09757,-0.51953 1.87177,-0.24478 1.98064,0.70293 0.081,0.70416 -0.13095,1.22081 -0.50048,1.22081 -0.53582,0 -0.67985,0.29608 -0.47998,0.98669 0.28619,0.98879 0.62403,1.62249 0.91435,1.71504 0.14646,0.0467 0.86515,0.10145 1.59704,0.12185 0.73191,0.0204 1.41377,0.0408 1.51528,0.0456 0.25295,0.0121 0.69691,0.36604 0.60366,0.4816 -0.0968,0.11997 1.33617,0.25323 1.77589,0.16516 0.24173,-0.0483 0.33227,-0.16074 0.33227,-0.41228 0,-0.34262 -0.2036,-0.45859 -0.39299,-0.22387 -0.21441,0.26571 -0.38968,-0.0506 -0.38695,-0.69851 0.004,-0.71875 0.37595,-2.93954 0.55293,-3.29281 0.0572,-0.11408 0.23731,-0.20742 0.40032,-0.20742 0.27915,0 0.29636,0.11836 0.29636,2.03843 0,1.27903 -0.0584,2.03844 -0.15657,2.03844 -0.0861,0 -0.15654,0.16187 -0.15654,0.35972 0,0.33884 0.0357,0.35972 0.61699,0.35972 0.65267,0 0.97791,0.19592 0.61639,0.3713 -0.11863,0.0576 -0.37428,0.10554 -0.56801,0.10643 l -0.35226,0.001 v 2.6492 c 0,2.54836 0.0121,2.6516 0.31311,2.71192 0.58525,0.11717 0.31609,0.27456 -0.46968,0.27456 -0.43053,0 -0.78279,-0.054 -0.78279,-0.11997 0,-0.0659 0.10566,-0.11998 0.23485,-0.11998 0.20178,0 0.23484,-0.37971 0.23484,-2.69793 v -2.69793 h -1.80044 c -1.67545,0 -1.80043,-0.016 -1.80043,-0.23186 0,-0.16122 0.13122,-0.24665 0.43052,-0.28041 0.23681,-0.0268 -0.46918,-0.0438 -1.56887,-0.0381 -1.68763,0.009 -1.99247,0.0387 -1.95509,0.1905 0.028,0.11368 0.54543,0.2901 1.40696,0.47962 0.74947,0.16487 1.43575,0.35659 1.52507,0.42605 0.21179,0.16471 1.57565,4.027 1.46877,4.15945 -0.14352,0.17785 0.25179,0.42302 0.81176,0.50348 0.50673,0.0728 0.69568,0.22578 0.42496,0.34402 -0.22684,0.0991 -1.21902,0.16293 -1.76065,0.11328 z"
         id="path4-9" />
      <path
         style="fill:#dadadb;fill-opacity:1;stroke-width:0.133475"
         d="m 127.34937,132.92625 c -0.26166,-0.13906 -0.61496,-0.31502 -0.78508,-0.39102 -0.48805,-0.21804 -0.48281,-0.43421 0.0318,-1.31204 0.26479,-0.45169 0.48144,-0.84116 0.48144,-0.86549 0,-0.0243 -0.16822,-0.063 -0.37381,-0.0857 l -0.37381,-0.0415 v -1.31065 -1.31064 l 0.55278,-0.0393 c 0.48502,-0.0343 0.57232,-0.0913 0.71222,-0.46425 0.0877,-0.23384 0.18765,-1.01244 0.22213,-1.73027 0.0345,-0.71781 0.15189,-1.85562 0.26087,-2.52846 0.19376,-1.19621 0.21246,-1.23656 0.8431,-1.81919 l 0.64493,-0.59585 -0.31096,-0.22617 c -0.29538,-0.21483 -0.3027,-0.25937 -0.1461,-0.88876 0.13095,-0.52655 0.24209,-0.69345 0.54108,-0.81286 0.43006,-0.17176 1.0069,-0.0708 1.25716,0.21987 0.0938,0.10897 0.17064,0.52505 0.17064,0.92449 0,0.60427 -0.0506,0.7586 -0.301,0.91894 -0.39066,0.2501 -0.38162,0.32815 0.11917,1.03 0.30739,0.43076 0.45832,0.84177 0.56227,1.53087 0.1667,1.10532 0.59348,1.99406 1.27154,2.64785 0.39635,0.38216 0.45647,0.50487 0.32321,0.65971 -0.22887,0.26589 -0.64036,0.23725 -0.73531,-0.0511 -0.0438,-0.13284 -0.23996,-0.38345 -0.43612,-0.55704 l -0.35666,-0.31562 0.0922,0.36983 c 0.0508,0.20342 0.18184,0.97015 0.29146,1.70386 0.12614,0.84428 0.40635,1.87529 0.7633,2.80848 l 0.56404,1.47448 h 0.65891 c 0.3624,0 0.65891,0.0599 0.65891,0.13296 0,0.21009 -0.84626,0.65237 -1.24932,0.6529 -0.20119,2.6e-4 -0.4036,0.0594 -0.4498,0.13163 -0.13792,0.21515 -0.614,0.14848 -0.70205,-0.0982 -0.045,-0.12613 -0.34339,-0.81916 -0.66308,-1.54001 -0.31968,-0.72086 -0.69944,-1.64928 -0.84393,-2.06316 -0.14446,-0.41388 -0.30293,-0.71368 -0.35212,-0.66624 -0.0492,0.0473 -0.0894,0.45348 -0.0894,0.9023 0,0.90943 -0.0642,0.97518 -0.95216,0.97518 -0.488,0 -0.55391,0.049 -1.00837,0.74951 -0.26743,0.41224 -0.48623,0.84976 -0.48623,0.97228 0,0.3418 0.148,0.63716 0.3204,0.63938 0.0854,8.7e-4 0.2471,0.0601 0.35926,0.13109 0.18124,0.11475 0.18124,0.14339 0,0.25812 -0.30065,0.19029 -0.55643,0.16203 -1.08745,-0.12011 z m 1.3593,-5.57917 c 0,-0.14198 -0.15102,-0.19658 -0.54371,-0.19658 -0.51022,0 -0.66319,0.10321 -0.45311,0.30581 0.0498,0.048 0.29452,0.0873 0.54371,0.0873 0.31216,0 0.45311,-0.0612 0.45311,-0.1966 z m 0.35398,-0.16108 c -0.13816,-0.13324 -0.25217,0.0674 -0.13881,0.24421 0.0857,0.13363 0.11769,0.13378 0.16371,5.2e-4 0.0316,-0.091 0.0204,-0.20119 -0.0248,-0.24476 z"
         id="path6-9" />
      <path
         id="path3-7"
         style="fill:#dadadb;fill-opacity:1;stroke-width:0.0631064"
         d="m 146.422,119.05034 c -0.26513,-0.008 -0.68241,0.0931 -0.98697,0.24699 -0.44754,0.22594 -0.45692,0.82217 -0.0253,1.61038 l 0.21097,0.38531 -0.21368,0.17127 c -0.44749,0.35848 -0.60391,0.98219 -0.46967,1.87282 0.26398,1.75173 0.28216,2.53762 0.0912,3.93605 l -0.0408,0.30033 h 0.23471 0.23471 l -0.0216,0.64811 c -0.0215,0.647 -0.0221,0.64901 -0.33324,1.18557 -0.17148,0.29558 -0.56259,1.02114 -0.86911,1.61234 l -0.55727,1.07489 0.18674,0.1582 c 0.19352,0.16401 0.44971,0.27778 1.28835,0.57228 0.45769,0.16074 0.77923,0.1868 1.09655,0.0886 0.13789,-0.0427 0.008,-0.22045 -0.25857,-0.35468 -0.14297,-0.0719 -0.33489,-0.201 -0.42638,-0.28701 l -0.16631,-0.15634 0.49698,-0.8268 c 0.27337,-0.45473 0.4971,-0.84102 0.4971,-0.8583 0,-0.0173 0.0668,-0.11943 0.14848,-0.22698 0.3646,-0.48028 0.5608,-1.02203 0.64152,-1.77079 0.0446,-0.41477 0.0867,-0.39494 0.25748,0.12092 0.0574,0.17387 0.33976,0.79986 0.62712,1.39104 0.54276,1.1166 0.85865,1.8368 1.00258,2.28554 0.0464,0.14424 0.13176,0.35452 0.18981,0.4673 l 0.10554,0.20514 0.497,-0.0386 c 0.6615,-0.0511 1.63214,-0.37934 1.63214,-0.55177 0,-0.11878 -0.41075,-0.33062 -0.71298,-0.36766 l -0.32624,-0.0399 -0.16865,-0.50585 c -0.0928,-0.2782 -0.3539,-1.08912 -0.58015,-1.80204 -0.33407,-1.0527 -0.6765,-1.99272 -0.96185,-2.63983 -0.0209,-0.0472 0.0121,-0.0794 0.0821,-0.08 0.0644,-5e-4 0.15831,-0.0273 0.20889,-0.0594 0.0795,-0.0504 0.0777,-0.0743 -0.0134,-0.17523 -0.27614,-0.30635 -0.41952,-0.9314 -0.51519,-2.24613 -0.0351,-0.48337 -0.0394,-0.48037 0.44225,-0.3311 0.17004,0.0528 0.52906,0.11395 0.79775,0.13597 0.40883,0.0335 0.50791,0.0224 0.60684,-0.0674 0.21622,-0.19643 0.28117,-0.6113 0.23778,-1.51961 l -0.0402,-0.83989 0.70464,-0.0336 c 0.64261,-0.0305 0.71517,-0.0466 0.82444,-0.18204 0.0903,-0.11194 0.11221,-0.21487 0.0894,-0.41791 l -0.0301,-0.26946 h 0.29919 c 0.5389,0 1.07417,0.23571 1.27467,0.5614 l 0.13643,0.22156 0.0891,-0.2176 c 0.11529,-0.28145 0.0693,-1.19422 -0.0781,-1.54542 l -0.1061,-0.25292 -0.2213,0.26749 c -0.17524,0.21179 -0.30223,0.29236 -0.61066,0.3874 -0.46366,0.1429 -1.0688,0.2412 -1.82454,0.29639 -0.46103,0.0336 -0.58051,0.0226 -0.71657,-0.0669 -0.38597,-0.25387 -0.58751,-0.24129 -1.09226,0.0686 -0.16222,0.0997 -0.35865,0.1435 -0.74129,0.16575 -0.4164,0.0242 -0.5389,0.0545 -0.61188,0.15127 -0.31289,0.4151 0.2735,0.89327 0.77574,0.63254 0.10642,-0.0553 0.33799,-0.10045 0.51469,-0.10045 0.30705,0 0.32538,0.009 0.4126,0.21921 0.0501,0.12064 0.0913,0.32136 0.0913,0.44618 0,0.24169 -0.11623,0.78978 -0.18367,0.86658 -0.0311,0.0354 -0.64076,-0.11073 -0.75016,-0.17969 -0.0111,-0.007 0.16618,-0.24974 0.39415,-0.53918 0.228,-0.28943 0.40498,-0.55482 0.3934,-0.58968 -0.0121,-0.0349 -0.14254,-0.0874 -0.29104,-0.1169 -0.24789,-0.0491 -0.28878,-0.0376 -0.49895,0.1414 -0.12586,0.1072 -0.32008,0.26875 -0.43142,0.35875 l -0.20236,0.16363 -0.47239,-0.24081 c -0.5376,-0.27413 -0.79395,-0.46158 -0.6906,-0.50485 0.26073,-0.10908 0.30038,-0.19756 0.31024,-0.69231 0.006,-0.29314 -0.0224,-0.55621 -0.0695,-0.64737 -0.0645,-0.12492 -0.0632,-0.19995 0.008,-0.40198 l 0.0872,-0.24822 -0.29266,-0.18636 c -0.16094,-0.10244 -0.39176,-0.20502 -0.51295,-0.22785 -0.031,-0.006 -0.0656,-0.009 -0.10366,-0.0111 z m 1.27822,1.76598 c -0.0285,3.1e-4 -0.0502,0.0357 -0.0502,0.0865 0,0.058 0.0248,0.0886 0.0552,0.0684 0.0781,-0.0522 0.082,-0.12801 0.008,-0.15277 -0.004,-0.001 -0.008,-0.002 -0.0121,-0.002 z m 3.50963,0.1181 c 0.45506,0 0.5607,0.0199 0.67671,0.12842 0.20748,0.19404 0.0829,0.33613 -0.33841,0.38579 -0.72406,0.0853 -1.25157,0.10808 -1.28402,0.0553 -0.0457,-0.0741 0.0771,-0.14504 0.16102,-0.093 0.1161,0.072 0.32213,-0.17034 0.28182,-0.33158 -0.0357,-0.14275 -0.0279,-0.14498 0.50288,-0.14498 z m -2.52044,0.0542 c 0.19941,0.002 0.37375,0.0157 0.38736,0.0293 0.0782,0.0784 -0.0825,0.2174 -0.32746,0.28316 -0.39516,0.1061 -0.53269,0.0973 -0.53155,-0.0346 0.001,-0.22475 0.0994,-0.28222 0.47165,-0.27774 z" />
      <path
         style="fill:#dadadb;fill-opacity:1;stroke-width:0.139954"
         d="m 162.51602,133.03291 c -0.69227,-0.14417 -1.72159,-0.88508 -2.06516,-1.48651 -0.38228,-0.66918 -0.33611,-1.9169 0.097,-2.6207 0.82701,-1.34389 2.89483,-1.8584 4.34854,-1.08199 l 0.47444,0.2534 0.39848,-0.37652 c 0.34004,-0.32125 0.37828,-0.4318 0.26064,-0.75338 -0.10256,-0.28051 -0.2478,-0.38839 -0.56782,-0.42195 -0.59111,-0.0619 -0.85102,-0.26893 -0.6344,-0.5052 0.11823,-0.12908 0.11984,-0.18208 0.006,-0.18208 -0.22885,0 -0.61019,-0.71791 -0.61019,-1.14876 0,-0.19968 0.26205,-0.85314 0.58233,-1.4521 0.53329,-0.99732 0.66336,-1.13681 1.54454,-1.65651 0.9343,-0.55101 0.96221,-0.58383 0.96221,-1.1304 0,-0.66972 0.32881,-1.00367 0.9882,-1.00367 0.24761,0 0.59825,0.10864 0.7792,0.24117 0.32589,0.23887 0.3267,0.24833 0.0857,0.99866 -0.21119,0.65756 -0.29125,0.7575 -0.60692,0.7575 -0.36321,0 -0.47891,0.23344 -0.2343,0.47269 0.0711,0.0696 0.20828,0.3502 0.30479,0.62359 0.0973,0.27593 0.37033,0.62271 0.61344,0.7794 0.86525,0.55772 2.55218,1.33142 2.60284,1.1938 0.09,-0.24449 0.74414,-0.1537 0.90965,0.12626 0.11421,0.19315 0.1093,0.3478 -0.0178,0.56293 -0.16127,0.27275 -0.18296,0.27708 -0.26953,0.0537 -0.0855,-0.22069 -0.11194,-0.22348 -0.2891,-0.0302 -0.1072,0.11689 -0.28614,0.21264 -0.39759,0.21264 -0.50917,0 0.1252,1.65132 0.71065,1.84979 0.28866,0.0979 0.35038,0.0642 0.42996,-0.23528 l 0.0929,-0.34953 0.0174,0.35104 c 0.0153,0.30724 0.0955,0.36176 0.6426,0.43676 1.95298,0.26771 3.13613,1.9075 2.62241,3.63451 -0.65497,2.20184 -4.15284,2.67982 -5.63408,0.76987 -0.88377,-1.13952 -0.68852,-2.62108 0.48549,-3.6838 0.62418,-0.565 0.70391,-0.69475 0.56809,-0.92447 -0.087,-0.14696 -0.21021,-0.2486 -0.27405,-0.22583 -0.0638,0.0228 -0.83308,0.72045 -1.70943,1.55041 -1.44965,1.37289 -1.5767,1.53324 -1.40835,1.77727 0.10178,0.14753 0.16393,0.28122 0.1381,0.29708 -0.0259,0.0159 -0.35165,0.2497 -0.72404,0.51966 -0.37242,0.26994 -0.73649,0.48988 -0.80907,0.48877 -0.0726,-8.8e-4 -0.0362,-0.0569 0.0809,-0.12387 0.17554,-0.10056 0.15022,-0.16772 -0.14463,-0.38385 l -0.35742,-0.26198 -0.19447,0.41917 c -0.57759,1.24506 -2.26716,1.98747 -3.79765,1.66873 z m 2.06343,-0.81897 c 0.31733,-0.16357 0.59593,-0.35731 0.61911,-0.43056 0.0231,-0.0732 -0.31306,-0.35141 -0.7472,-0.61818 -0.57082,-0.35074 -0.83386,-0.44475 -0.95008,-0.33955 -0.11623,0.10521 -0.20982,0.10112 -0.33812,-0.0152 -0.13848,-0.12533 -0.32407,-0.0363 -0.84569,0.40613 l -0.66828,0.56672 0.58092,-0.56551 c 0.76573,-0.74544 0.75287,-1.06992 -0.0737,-1.86008 l -0.65459,-0.62575 0.70239,0.56608 c 0.43638,0.35172 0.77062,0.52736 0.88259,0.46377 0.0991,-0.0562 0.30171,-0.0842 0.45023,-0.0622 0.29479,0.0439 0.70652,-0.24519 1.14864,-0.80664 l 0.28367,-0.36024 -0.47527,-0.22248 c -0.57055,-0.26707 -1.73303,-0.26916 -2.29582,-0.004 -1.25693,0.59195 -1.75995,1.92182 -1.13844,3.00978 0.62363,1.09165 2.30941,1.52168 3.51963,0.89784 z m 9.78328,0.10687 c 0.8256,-0.38647 1.42435,-1.29863 1.37974,-2.10197 -0.0275,-0.49722 -0.056,-0.57981 -0.35067,-1.01723 l -0.30396,-0.45133 -0.65165,0.57892 c -0.752,0.66807 -0.81666,0.91478 -0.24711,0.94287 l 0.40453,0.0199 -0.40453,0.0554 c -0.22249,0.0305 -0.40452,0.0942 -0.40452,0.14143 0,0.0472 0.28131,0.35389 0.62517,0.68131 l 0.62518,0.59528 -0.7167,-0.55476 c -0.39417,-0.30515 -0.77478,-0.52228 -0.84581,-0.48256 -0.0711,0.0398 -0.14137,0.44322 -0.15635,0.89661 l -0.0272,0.82436 -0.0503,-0.73235 c -0.0799,-1.16165 -0.11595,-1.18272 -0.89317,-0.52245 -0.65531,0.55668 -0.66343,0.55978 -0.14791,0.0564 0.73207,-0.71487 0.69304,-1.09163 -0.17799,-1.71824 -0.36409,-0.2619 -0.70405,-0.47677 -0.75553,-0.47748 -0.0516,-6.8e-4 -0.20072,0.20315 -0.33171,0.45303 -0.37441,0.71419 -0.10289,1.79508 0.59441,2.36632 0.77611,0.63578 2.01506,0.83081 2.83618,0.44645 z m -8.60087,-1.25952 0.21269,-0.37236 -0.97674,-0.0826 c -0.5372,-0.0454 -1.00348,-0.0584 -1.03616,-0.0288 -0.097,0.0878 1.34718,0.99046 1.47251,0.92033 0.0632,-0.0354 0.21069,-0.23187 0.3277,-0.43665 z m 0.22648,-1.11114 c 0,-0.0929 -0.17255,-0.39868 -0.38342,-0.67959 l -0.38341,-0.51075 -0.64628,0.57414 c -0.35545,0.31579 -0.64628,0.6216 -0.64628,0.67959 0,0.058 0.46336,0.10532 1.0297,0.10532 0.73341,0 1.02969,-0.0486 1.02969,-0.1688 z m 0.98216,-0.5738 0.0261,-0.3892 -0.10698,0.39945 -0.10698,0.39948 -0.11234,-0.53262 c -0.1642,-0.7787 -0.42105,-1.53128 -0.52261,-1.53128 -0.0486,0 -0.17511,0.12559 -0.28105,0.27918 -0.16747,0.24276 -0.14603,0.34291 0.1643,0.7674 0.19629,0.2685 0.40505,0.62552 0.46389,0.79338 0.14459,0.41234 0.44363,0.29558 0.47581,-0.18579 z m 5.55201,-0.31614 c -0.14687,-0.36975 -0.34301,-0.67226 -0.43584,-0.67226 -0.17733,0 -0.74673,0.50689 -0.64252,0.57199 0.0332,0.0208 0.31556,0.23379 0.62745,0.47344 0.31188,0.23962 0.60103,0.40496 0.64252,0.3674 0.0415,-0.0376 -0.0447,-0.37082 -0.19161,-0.74057 z m 1.85604,0.18807 c 0.73978,-0.6823 0.72128,-0.72222 -0.48853,-1.05469 -0.73658,-0.20243 -1.13514,-0.1588 -1.13514,0.12426 0,0.32408 0.62951,1.53479 0.79801,1.53479 0.0937,0 0.46528,-0.27196 0.82566,-0.60437 z m -3.26353,-2.48446 c 0.0285,-0.0671 -0.3009,-0.10355 -0.73553,-0.081 l -0.78724,0.0407 -0.5884,1.01742 c -0.32361,0.55959 -0.67853,1.11306 -0.78872,1.22999 -0.11019,0.1169 -0.15832,0.31163 -0.10698,0.43267 0.0721,0.17017 0.41789,-0.0904 1.52421,-1.14896 0.78703,-0.75298 1.45422,-1.42385 1.4827,-1.49079 z m -4.14426,-0.0111 c -0.43952,-0.15431 -0.50533,-0.0766 -0.35909,0.42409 l 0.13256,0.45356 0.26094,-0.38699 c 0.25345,-0.37588 0.25246,-0.38997 -0.0343,-0.49066 z m 3.98215,-0.57946 c 0.41012,-0.0995 0.4286,-0.39203 0.0367,-0.58185 -0.45511,-0.22046 -0.36889,-0.53261 0.14708,-0.53261 0.24272,0 0.4413,-0.06 0.4413,-0.1331 0,-0.0732 -0.16202,-0.1331 -0.36006,-0.1331 -0.46796,0 -2.82609,-0.77268 -3.09158,-1.01301 -0.11261,-0.10189 -0.26329,-0.18539 -0.33473,-0.18539 -0.11783,0 -0.77369,0.71371 -0.77369,0.84193 0,0.0294 0.41372,0.2203 0.91938,0.42381 1.21705,0.48986 1.72839,0.82716 1.72839,1.14011 0,0.20184 0.103,0.25686 0.47808,0.25543 0.26294,-8.6e-4 0.627,-0.0381 0.80904,-0.0821 z"
         id="path7-0" />
    </g>
  </g>
</svg>
